<?xml version="1.0" encoding="utf-8"?>
<!-- Generator: Adobe Illustrator 27.5.0, SVG Export Plug-In . SVG Version: 6.00 Build 0)  -->
<svg version="1.1" xmlns="http://www.w3.org/2000/svg" xmlns:xlink="http://www.w3.org/1999/xlink" x="0px" y="0px"
	 viewBox="0 0 750 500" style="enable-background:new 0 0 750 500;" xml:space="preserve">
<g id="Background_Simple">
	<g>
		<path style="fill:#92E3A9;" d="M677.615,208.451c-20.219-69.68-76.691-124.68-149.409-143.098
			c-19.119-4.842-39.252-7.29-58.952-5.207c-80.513,8.512-173.19,64.15-222.549,75.814s-111.708-34.991-173.19,36.657
			c-61.483,71.648-33.772,237.44,102.182,269.931s204.364-47.488,264.981-29.992c60.617,17.496,166.262,9.997,225.147-41.656
			C700.742,340.272,695.163,268.926,677.615,208.451z"/>
		<path style="opacity:0.8;fill:#FFFFFF;" d="M677.615,208.451c-20.219-69.68-76.691-124.68-149.409-143.098
			c-19.119-4.842-39.252-7.29-58.952-5.207c-80.513,8.512-173.19,64.15-222.549,75.814s-111.708-34.991-173.19,36.657
			c-61.483,71.648-33.772,237.44,102.182,269.931s204.364-47.488,264.981-29.992c60.617,17.496,166.262,9.997,225.147-41.656
			C700.742,340.272,695.163,268.926,677.615,208.451z"/>
	</g>
</g>
<g id="Floor_2">
	<g>
		<line style="fill:#FFFFFF;stroke:#263238;stroke-miterlimit:10;" x1="685.742" y1="400.404" x2="697.865" y2="400.404"/>
		<line style="fill:#FFFFFF;stroke:#263238;stroke-miterlimit:10;" x1="465.791" y1="400.404" x2="676.217" y2="400.404"/>
	</g>
</g>
<g id="Floor_1">
	<g>
		<line style="fill:#FFFFFF;stroke:#263238;stroke-miterlimit:10;" x1="261.427" y1="400.404" x2="277.014" y2="400.404"/>
		<line style="fill:#FFFFFF;stroke:#263238;stroke-miterlimit:10;" x1="44.939" y1="400.404" x2="251.901" y2="400.404"/>
	</g>
</g>
<g id="Plant">
	<g>
		<g>
			<path style="fill:#263238;" d="M78.355,337.138c2.153,0.94,7.42,0.822,7.424,0.822c0.054-0.001-1.132-3.448-1.232-3.656
				c-1.155-2.417-4.81-6.409-7.783-6.007c-2.142,0.29-3.333,2.433-2.85,4.45C74.408,334.806,76.521,336.336,78.355,337.138z"/>
			<path style="fill:#263238;" d="M80.173,352.392c2.234,0.326,6.934-1.037,7.307-1.147c0.742,2.631,1.717,5.271,2.851,7.888
				c0.646,1.497,1.344,2.984,2.063,4.467c-0.429-0.628-0.817-1.186-0.879-1.259c-1.754-2.027-6.332-4.911-9.093-3.738
				c-1.99,0.845-2.572,3.227-1.574,5.044c1.02,1.856,3.463,2.774,5.443,3.062c2.009,0.293,6.04-0.789,7.103-1.089
				c0.282,0.566,0.556,1.134,0.84,1.699c1.361,2.71,2.731,5.408,3.993,8.096c0.445,0.947,0.849,1.896,1.257,2.844
				c-0.381-0.558-0.707-1.024-0.764-1.09c-1.753-2.026-6.331-4.911-9.093-3.737c-1.99,0.845-2.573,3.227-1.574,5.044
				c1.021,1.856,3.463,2.774,5.443,3.063c1.918,0.28,5.647-0.685,6.911-1.036c0.388,0.984,0.779,1.968,1.11,2.938
				c0.212,0.668,0.462,1.296,0.636,1.978c0.188,0.672,0.373,1.338,0.557,1.997c0.308,1.282,0.633,2.603,0.901,3.861
				c0.194,0.874,0.362,1.71,0.534,2.552c-0.432-0.948-1.318-2.786-1.41-2.931c-1.425-2.269-5.514-5.813-8.422-5.072
				c-2.095,0.534-3.031,2.8-2.319,4.748c0.727,1.989,3.002,3.267,4.915,3.852c2.107,0.644,6.772,0.056,7.354-0.022
				c0.28,1.394,0.538,2.752,0.762,4.038c0.12,0.68,0.224,1.32,0.33,1.962h1.855c-0.137-0.741-0.28-1.498-0.438-2.289
				c-0.278-1.416-0.604-2.924-0.952-4.47c0.351-0.139,2.34-0.944,4.103-1.929c1.536,1.663,5.471,3.609,5.98,3.857
				c-0.535,1.317-1.069,2.592-1.592,3.788c-0.157,0.362-0.309,0.699-0.463,1.043h1.954c0.049-0.118,0.097-0.23,0.146-0.352
				c0.549-1.335,1.11-2.773,1.672-4.254c0.564,0.118,5.182,1.056,7.334,0.57c1.952-0.441,4.316-1.546,5.19-3.475
				c0.855-1.889,0.09-4.219-1.96-4.907c-2.844-0.956-7.185,2.274-8.776,4.431c-0.094,0.127-0.958,1.621-1.487,2.572
				c0.226-0.606,0.452-1.193,0.678-1.82c0.454-1.237,0.871-2.485,1.323-3.826c0.196-0.655,0.394-1.318,0.594-1.986
				c0.212-0.659,0.353-1.382,0.534-2.078c0.387-1.624,0.7-3.289,0.978-4.972c1.084,0.394,4.955,1.741,6.961,1.6
				c1.996-0.14,4.5-0.873,5.656-2.649c1.132-1.738,0.728-4.157-1.193-5.148c-2.667-1.375-7.447,1.16-9.346,3.05
				c-0.118,0.117-1.328,1.627-1.977,2.469c0.159-1.013,0.323-2.024,0.451-3.055c0.369-2.975,0.65-5.998,0.944-9.012
				c0.089-0.923,0.19-1.842,0.287-2.763c0.385,0.145,4.951,1.845,7.197,1.687c1.996-0.14,4.5-0.873,5.656-2.649
				c1.132-1.737,0.728-4.157-1.193-5.147c-2.667-1.376-7.447,1.16-9.346,3.05c-0.143,0.142-1.881,2.317-2.296,2.891
				c0.214-2.027,0.446-4.045,0.756-6.024c0.423-2.732,0.99-5.39,1.729-7.924c0.178,0.068,4.937,1.863,7.237,1.702
				c1.996-0.14,4.501-0.874,5.656-2.649c1.132-1.738,0.728-4.157-1.193-5.148c-2.667-1.375-7.447,1.16-9.346,3.05
				c-0.149,0.148-2.018,2.489-2.327,2.937c0.045-0.15,0.074-0.311,0.12-0.461c0.824-2.695,1.96-5.203,3.139-7.498
				c0.682-1.335,1.41-2.574,2.144-3.762c0.852,0.425,4.767,2.326,6.853,2.41c2,0.08,4.569-0.374,5.913-2.011
				c1.316-1.603,1.18-4.052-0.62-5.247c-2.5-1.66-7.53,0.335-9.625,2.005c-0.114,0.091-1.17,1.142-1.928,1.919
				c0.339-0.532,0.68-1.086,1.015-1.589c1.255-1.89,2.521-3.544,3.654-4.999c0.651-0.822,1.255-1.553,1.829-2.231
				c1.053-0.018,5.299-0.147,7.155-1.019c1.811-0.851,3.883-2.437,4.321-4.51c0.429-2.029-0.82-4.14-2.969-4.371
				c-2.983-0.322-6.528,3.767-7.618,6.214c-0.094,0.212-1.187,3.689-1.132,3.689c0,0,0.051,0,0.064-0.001
				c-0.565,0.641-1.162,1.335-1.801,2.106c-1.167,1.434-2.473,3.064-3.773,4.934c-1.305,1.866-2.671,3.929-3.913,6.233
				c-1.248,2.307-2.443,4.798-3.342,7.524c-0.01,0.031-0.017,0.064-0.027,0.095c0.016-0.879-0.023-3.338-0.048-3.526
				c-0.344-2.657-2.571-7.589-5.522-8.134c-2.125-0.393-3.926,1.272-4.095,3.34c-0.173,2.111,1.358,4.224,2.851,5.557
				c1.683,1.504,6.355,2.959,6.727,3.074c-0.833,2.603-1.476,5.343-1.974,8.15c-0.286,1.605-0.525,3.231-0.743,4.864
				c-0.011-0.76-0.027-1.44-0.04-1.535c-0.344-2.657-2.571-7.588-5.522-8.134c-2.126-0.393-3.926,1.272-4.095,3.339
				c-0.173,2.111,1.358,4.224,2.85,5.557c1.514,1.353,5.473,2.674,6.524,3.01c-0.077,0.627-0.161,1.253-0.236,1.881
				c-0.36,3.011-0.706,6.017-1.136,8.956c-0.151,1.036-0.338,2.05-0.521,3.065c-0.011-0.675-0.025-1.244-0.036-1.33
				c-0.345-2.658-2.571-7.589-5.521-8.134c-2.126-0.393-3.926,1.272-4.096,3.34c-0.173,2.11,1.358,4.224,2.851,5.557
				c1.445,1.291,5.088,2.544,6.336,2.948c-0.219,1.034-0.436,2.071-0.695,3.063c-0.192,0.673-0.33,1.335-0.561,2.001
				c-0.215,0.664-0.427,1.322-0.636,1.972c-0.451,1.239-0.908,2.52-1.378,3.717c-0.32,0.836-0.642,1.626-0.962,2.422
				c0.162-1.029,0.437-3.05,0.442-3.222c0.041-1.78-0.591-4.673-1.849-6.707c0.008-0.263-0.007-0.525-0.049-0.785
				c-0.329-2.048-2.253-3.569-4.342-3.012c-2.899,0.772-4.738,5.861-4.875,8.537c-0.008,0.158,0.095,1.88,0.178,2.966
				c-0.146-0.631-0.28-1.245-0.439-1.892c-0.304-1.282-0.646-2.553-1.007-3.922c-0.198-0.655-0.398-1.316-0.6-1.984
				c-0.186-0.666-0.468-1.347-0.701-2.028c-0.574-1.568-1.231-3.129-1.928-4.687c1.123-0.269,5.094-1.281,6.689-2.505
				c1.588-1.218,3.271-3.212,3.256-5.329c-0.015-2.074-1.685-3.869-3.835-3.636c-2.983,0.324-5.572,5.076-6.113,7.7
				c-0.034,0.164-0.21,2.09-0.287,3.15c-0.426-0.933-0.847-1.867-1.309-2.797c-1.333-2.685-2.765-5.361-4.184-8.038
				c-0.435-0.82-0.858-1.641-1.285-2.462c0.401-0.092,5.147-1.193,6.934-2.564c1.587-1.218,3.271-3.211,3.256-5.329
				c-0.015-2.074-1.686-3.869-3.835-3.635c-2.983,0.324-5.572,5.076-6.113,7.7c-0.041,0.198-0.291,2.97-0.32,3.678
				c-0.939-1.808-1.859-3.619-2.693-5.442c-1.154-2.513-2.147-5.042-2.929-7.563c0.187-0.042,5.146-1.17,6.976-2.573
				c1.588-1.218,3.272-3.211,3.256-5.329c-0.014-2.074-1.686-3.869-3.835-3.635c-2.983,0.324-5.571,5.076-6.113,7.7
				c-0.043,0.206-0.31,3.189-0.32,3.733c-0.046-0.15-0.111-0.3-0.155-0.45c-0.799-2.703-1.235-5.421-1.518-7.986
				c-0.168-1.49-0.244-2.923-0.287-4.32c0.945-0.116,5.259-0.69,7.045-1.771c1.712-1.037,3.605-2.833,3.822-4.939
				c0.213-2.063-1.251-4.031-3.412-4.035c-3.001-0.006-6.095,4.433-6.922,6.982c-0.045,0.139-0.346,1.598-0.55,2.664
				c-0.01-0.631-0.032-1.281-0.029-1.885c0.004-2.269,0.147-4.347,0.29-6.185c0.089-1.045,0.191-1.988,0.295-2.87
				c0.868-0.597,4.338-3.047,5.405-4.798c1.042-1.709,1.894-4.174,1.116-6.144c-0.762-1.929-2.968-3.001-4.887-2.009
				c-2.666,1.378-3.367,6.744-2.926,9.386c0.039,0.228,1.045,3.731,1.091,3.701c0,0,0.042-0.029,0.052-0.036
				c-0.118,0.846-0.233,1.755-0.34,2.75c-0.183,1.839-0.372,3.919-0.425,6.197c-0.059,2.276-0.06,4.751,0.175,7.357
				c0.232,2.612,0.609,5.349,1.363,8.119c0.008,0.031,0.022,0.063,0.03,0.094c-0.472-0.742-1.862-2.771-1.986-2.915
				c-1.753-2.026-6.331-4.911-9.093-3.738c-1.989,0.845-2.573,3.227-1.573,5.045C75.751,351.186,78.193,352.104,80.173,352.392z"/>
			<path style="fill:#263238;" d="M131.624,338.296c0.046,0.029,0.958-3.5,0.99-3.729c0.369-2.654-0.477-7.999-3.178-9.304
				c-1.946-0.94-4.122,0.191-4.831,2.14c-0.724,1.99,0.194,4.432,1.282,6.112C127.163,335.488,131.621,338.293,131.624,338.296z"/>
		</g>
	</g>
</g>
<g id="Portal_2">
	<polygon style="fill:#263238;stroke:#263238;stroke-miterlimit:10;" points="473,357.269 510.078,334.923 510.078,156.151 
		473,133.804 	"/>
</g>
<g id="Portal_1">
	<polygon style="fill:#263238;stroke:#263238;stroke-miterlimit:10;" points="272.226,357.269 235.149,334.923 235.149,156.151 
		272.226,133.804 	"/>
</g>
<g id="Text_1_">
	<g>
		<g>
			<path style="fill:#263238;stroke:#263238;stroke-miterlimit:10;" d="M324.237,256.781v-19.824H300.13v-11.754l21.019-49.11
				h16.038V226h8.268v10.958h-8.268v19.824H324.237z M311.685,226h12.552v-35.064L311.685,226z"/>
			<path style="fill:#263238;stroke:#263238;stroke-miterlimit:10;" d="M373.745,257.976c-4.716,0-8.617-0.996-11.705-2.988
				c-3.088-1.992-5.414-4.747-6.973-8.268c-1.561-3.52-2.341-7.571-2.341-12.153v-35.762c0-4.715,0.747-8.849,2.241-12.402
				c1.494-3.552,3.785-6.326,6.874-8.318c3.088-1.992,7.056-2.988,11.904-2.988c4.847,0,8.816,0.996,11.904,2.988
				c3.088,1.992,5.379,4.766,6.874,8.318c1.494,3.553,2.241,7.688,2.241,12.402v35.762c0,4.583-0.781,8.634-2.341,12.153
				c-1.561,3.521-3.885,6.276-6.973,8.268C382.363,256.98,378.46,257.976,373.745,257.976z M373.745,246.122
				c2.058,0,3.586-0.63,4.583-1.893c0.996-1.261,1.659-2.789,1.992-4.582c0.332-1.793,0.498-3.552,0.498-5.28v-35.363
				c0-1.859-0.149-3.702-0.448-5.529c-0.299-1.826-0.946-3.37-1.942-4.632c-0.996-1.261-2.557-1.893-4.682-1.893
				c-2.126,0-3.686,0.632-4.682,1.893c-0.996,1.262-1.644,2.807-1.942,4.632c-0.299,1.827-0.448,3.67-0.448,5.529v35.363
				c0,1.728,0.182,3.487,0.548,5.28c0.364,1.793,1.046,3.321,2.042,4.582C370.259,245.492,371.753,246.122,373.745,246.122z"/>
			<path style="fill:#263238;stroke:#263238;stroke-miterlimit:10;" d="M427.638,256.781v-19.824H403.53v-11.754l21.02-49.11h16.037
				V226h8.268v10.958h-8.268v19.824H427.638z M415.086,226h12.552v-35.064L415.086,226z"/>
		</g>
		<g>
			<path style="fill:#92E3A9;stroke:#263238;stroke-miterlimit:10;" d="M324.237,249.854V230.03H300.13v-11.754l21.019-49.11h16.038
				v49.907h8.268v10.958h-8.268v19.824H324.237z M311.685,219.072h12.552v-35.064L311.685,219.072z"/>
			<path style="fill:#92E3A9;stroke:#263238;stroke-miterlimit:10;" d="M373.745,251.049c-4.716,0-8.617-0.996-11.705-2.988
				s-5.414-4.747-6.973-8.268c-1.561-3.52-2.341-7.571-2.341-12.153v-35.762c0-4.715,0.747-8.849,2.241-12.402
				c1.494-3.552,3.785-6.326,6.874-8.318c3.088-1.992,7.056-2.988,11.904-2.988c4.847,0,8.816,0.996,11.904,2.988
				c3.088,1.992,5.379,4.766,6.874,8.318c1.494,3.553,2.241,7.688,2.241,12.402v35.762c0,4.583-0.781,8.634-2.341,12.153
				c-1.561,3.521-3.885,6.276-6.973,8.268S378.46,251.049,373.745,251.049z M373.745,239.195c2.058,0,3.586-0.63,4.583-1.893
				c0.996-1.261,1.659-2.789,1.992-4.582c0.332-1.793,0.498-3.552,0.498-5.28v-35.363c0-1.859-0.149-3.702-0.448-5.529
				c-0.299-1.826-0.946-3.37-1.942-4.632c-0.996-1.261-2.557-1.893-4.682-1.893c-2.126,0-3.686,0.632-4.682,1.893
				c-0.996,1.262-1.644,2.807-1.942,4.632c-0.299,1.827-0.448,3.67-0.448,5.529v35.363c0,1.728,0.182,3.487,0.548,5.28
				c0.364,1.793,1.046,3.321,2.042,4.582C370.259,238.564,371.753,239.195,373.745,239.195z"/>
			<path style="fill:#92E3A9;stroke:#263238;stroke-miterlimit:10;" d="M427.638,249.854V230.03H403.53v-11.754l21.02-49.11h16.037
				v49.907h8.268v10.958h-8.268v19.824H427.638z M415.086,219.072h12.552v-35.064L415.086,219.072z"/>
		</g>
		<g>
			<path style="fill:#263238;" d="M331.254,306.931v-29.884h10.81v2.177h-7.969v11.215h6.493v2.066h-6.493v12.322h8.043v2.103
				H331.254z"/>
			<path style="fill:#263238;" d="M345.974,306.931v-29.884h6.751c1.869,0,3.339,0.302,4.409,0.904
				c1.07,0.603,1.838,1.475,2.306,2.62c0.467,1.143,0.701,2.502,0.701,4.076c0,1.107-0.123,2.152-0.369,3.137
				c-0.246,0.983-0.664,1.82-1.254,2.509c-0.59,0.689-1.427,1.143-2.509,1.365l4.575,15.274h-2.73l-4.39-14.683h-4.686v14.683
				H345.974z M348.778,290.182h3.8c1.254,0,2.225-0.208,2.915-0.627c0.688-0.418,1.18-1.034,1.476-1.845
				c0.295-0.812,0.443-1.832,0.443-3.063c0-1.845-0.32-3.221-0.959-4.132c-0.64-0.909-1.907-1.365-3.8-1.365h-3.874V290.182z"/>
			<path style="fill:#263238;" d="M364.863,306.931v-29.884h6.751c1.869,0,3.339,0.302,4.409,0.904
				c1.07,0.603,1.838,1.475,2.306,2.62c0.467,1.143,0.701,2.502,0.701,4.076c0,1.107-0.123,2.152-0.369,3.137
				c-0.246,0.983-0.664,1.82-1.254,2.509c-0.59,0.689-1.427,1.143-2.509,1.365l4.575,15.274h-2.73l-4.39-14.683h-4.686v14.683
				H364.863z M367.667,290.182h3.8c1.254,0,2.225-0.208,2.915-0.627c0.688-0.418,1.18-1.034,1.475-1.845
				c0.295-0.812,0.443-1.832,0.443-3.063c0-1.845-0.32-3.221-0.959-4.132c-0.64-0.909-1.907-1.365-3.8-1.365h-3.874V290.182z"/>
			<path style="fill:#263238;" d="M390.8,307.3c-1.968,0-3.511-0.387-4.63-1.162c-1.119-0.775-1.906-1.857-2.361-3.247
				c-0.456-1.389-0.683-2.982-0.683-4.777v-12.396c0-1.82,0.24-3.4,0.72-4.741c0.479-1.341,1.279-2.379,2.398-3.117
				c1.119-0.738,2.638-1.107,4.556-1.107c1.943,0,3.474,0.368,4.593,1.107c1.119,0.738,1.912,1.777,2.38,3.117
				c0.467,1.341,0.701,2.921,0.701,4.741v12.433c0,1.795-0.227,3.382-0.682,4.759c-0.456,1.378-1.236,2.453-2.343,3.228
				C394.341,306.913,392.792,307.3,390.8,307.3z M390.8,305.05c1.328,0,2.337-0.264,3.025-0.793c0.688-0.529,1.162-1.267,1.42-2.213
				c0.259-0.947,0.388-2.048,0.388-3.302v-13.54c0-1.255-0.129-2.348-0.388-3.284c-0.258-0.935-0.732-1.654-1.42-2.159
				c-0.689-0.504-1.697-0.757-3.025-0.757c-1.304,0-2.306,0.253-3.007,0.757c-0.701,0.504-1.181,1.224-1.439,2.159
				c-0.258,0.935-0.388,2.028-0.388,3.284v13.54c0,1.254,0.129,2.355,0.388,3.302c0.258,0.946,0.738,1.684,1.439,2.213
				C388.494,304.786,389.496,305.05,390.8,305.05z"/>
			<path style="fill:#263238;" d="M403.122,306.931v-29.884h6.751c1.869,0,3.339,0.302,4.409,0.904
				c1.07,0.603,1.838,1.475,2.306,2.62c0.467,1.143,0.701,2.502,0.701,4.076c0,1.107-0.123,2.152-0.369,3.137
				c-0.246,0.983-0.664,1.82-1.254,2.509c-0.59,0.689-1.427,1.143-2.509,1.365l4.574,15.274h-2.729l-4.39-14.683h-4.686v14.683
				H403.122z M405.925,290.182h3.8c1.254,0,2.225-0.208,2.915-0.627c0.688-0.418,1.18-1.034,1.475-1.845
				c0.295-0.812,0.443-1.832,0.443-3.063c0-1.845-0.32-3.221-0.959-4.132c-0.64-0.909-1.907-1.365-3.8-1.365h-3.874V290.182z"/>
		</g>
	</g>
</g>
<g id="Graphics">
	<g>
		<line style="fill:none;stroke:#263238;stroke-miterlimit:10;" x1="597.915" y1="155.966" x2="597.915" y2="178.952"/>
		<line style="fill:none;stroke:#263238;stroke-miterlimit:10;" x1="609.408" y1="167.459" x2="586.422" y2="167.459"/>
	</g>
	<g>
		<line style="fill:none;stroke:#263238;stroke-miterlimit:10;" x1="200.608" y1="354.62" x2="200.608" y2="377.606"/>
		<line style="fill:none;stroke:#263238;stroke-miterlimit:10;" x1="212.101" y1="366.113" x2="189.115" y2="366.113"/>
	</g>
	<g>
		<line style="fill:none;stroke:#263238;stroke-miterlimit:10;" x1="414.612" y1="355.523" x2="414.612" y2="378.509"/>
		<line style="fill:none;stroke:#263238;stroke-miterlimit:10;" x1="426.105" y1="367.016" x2="403.119" y2="367.016"/>
	</g>
	<g>
		<line style="fill:none;stroke:#263238;stroke-miterlimit:10;" x1="361.337" y1="109.012" x2="361.337" y2="131.998"/>
		<line style="fill:none;stroke:#263238;stroke-miterlimit:10;" x1="372.829" y1="120.505" x2="349.844" y2="120.505"/>
	</g>
	<g>
		<line style="fill:none;stroke:#263238;stroke-miterlimit:10;" x1="65.162" y1="109.012" x2="65.162" y2="131.998"/>
		<line style="fill:none;stroke:#263238;stroke-miterlimit:10;" x1="76.655" y1="120.505" x2="53.669" y2="120.505"/>
	</g>
	<circle style="fill:none;stroke:#263238;stroke-miterlimit:10;" cx="523.871" cy="90.707" r="6.321"/>
	<circle style="fill:none;stroke:#263238;stroke-miterlimit:10;" cx="674.667" cy="122.311" r="6.321"/>
	<circle style="fill:none;stroke:#263238;stroke-miterlimit:10;" cx="95.863" cy="240.6" r="6.321"/>
	<circle style="fill:none;stroke:#263238;stroke-miterlimit:10;" cx="199.705" cy="104.251" r="6.321"/>
	<path style="fill:none;stroke:#263238;stroke-miterlimit:10;" d="M166.295,367.919c0-3.491-2.83-6.321-6.321-6.321
		c-3.491,0-6.321,2.83-6.321,6.321c0,3.491,2.83,6.321,6.321,6.321C163.465,374.239,166.295,371.409,166.295,367.919z"/>
	<circle style="fill:none;stroke:#263238;stroke-miterlimit:10;" cx="670.152" cy="251.436" r="6.321"/>
</g>
<g id="Robot_2">
	<g>
		<g>
			<g>
				<path style="fill:#FFFFFF;stroke:#263238;stroke-width:0.65;stroke-miterlimit:10;" d="M480.114,298.921h-3.373
					c-0.638,0-1.156-0.518-1.156-1.156v-12.403c0-0.638,0.517-1.156,1.156-1.156h3.373c0.638,0,1.156,0.518,1.156,1.156v12.403
					C481.27,298.403,480.752,298.921,480.114,298.921z"/>
				<path style="fill:#FFFFFF;stroke:#263238;stroke-width:0.65;stroke-miterlimit:10;" d="M477.985,299.644h-3.373
					c-0.638,0-1.156-0.518-1.156-1.156v-13.848c0-0.639,0.517-1.156,1.156-1.156h3.373c0.638,0,1.156,0.518,1.156,1.156v13.848
					C479.141,299.126,478.623,299.644,477.985,299.644z"/>
			</g>
			<g>
				<path style="fill:#FFFFFF;stroke:#263238;stroke-width:0.65;stroke-miterlimit:10;" d="M488.577,298.921h-3.373
					c-0.638,0-1.156-0.518-1.156-1.156v-12.403c0-0.638,0.517-1.156,1.156-1.156h3.373c0.638,0,1.156,0.518,1.156,1.156v12.403
					C489.732,298.403,489.215,298.921,488.577,298.921z"/>
				<path style="fill:#FFFFFF;stroke:#263238;stroke-width:0.65;stroke-miterlimit:10;" d="M486.448,299.644h-3.373
					c-0.638,0-1.156-0.518-1.156-1.156v-13.848c0-0.639,0.517-1.156,1.156-1.156h3.373c0.638,0,1.156,0.518,1.156,1.156v13.848
					C487.603,299.126,487.086,299.644,486.448,299.644z"/>
			</g>
			<g>
				<path style="fill:#FFFFFF;stroke:#263238;stroke-width:0.65;stroke-miterlimit:10;" d="M497.039,298.921h-3.373
					c-0.638,0-1.156-0.518-1.156-1.156v-12.403c0-0.638,0.518-1.156,1.156-1.156h3.373c0.638,0,1.156,0.518,1.156,1.156v12.403
					C498.195,298.403,497.678,298.921,497.039,298.921z"/>
				<path style="fill:#FFFFFF;stroke:#263238;stroke-width:0.65;stroke-miterlimit:10;" d="M494.91,299.644h-3.373
					c-0.638,0-1.156-0.518-1.156-1.156v-13.848c0-0.639,0.517-1.156,1.156-1.156h3.373c0.638,0,1.156,0.518,1.156,1.156v13.848
					C496.066,299.126,495.549,299.644,494.91,299.644z"/>
			</g>
			<g>
				<path style="fill:#FFFFFF;stroke:#263238;stroke-width:0.65;stroke-miterlimit:10;" d="M505.502,298.921h-3.373
					c-0.638,0-1.156-0.518-1.156-1.156v-12.403c0-0.638,0.517-1.156,1.156-1.156h3.373c0.638,0,1.156,0.518,1.156,1.156v12.403
					C506.658,298.403,506.14,298.921,505.502,298.921z"/>
				<path style="fill:#FFFFFF;stroke:#263238;stroke-width:0.65;stroke-miterlimit:10;" d="M503.373,299.644h-3.373
					c-0.638,0-1.156-0.518-1.156-1.156v-13.848c0-0.639,0.517-1.156,1.156-1.156h3.373c0.638,0,1.156,0.518,1.156,1.156v13.848
					C504.529,299.126,504.012,299.644,503.373,299.644z"/>
			</g>
			<g>
				<path style="fill:#FFFFFF;stroke:#263238;stroke-width:0.65;stroke-miterlimit:10;" d="M513.965,298.921h-3.373
					c-0.638,0-1.156-0.518-1.156-1.156v-12.403c0-0.638,0.517-1.156,1.156-1.156h3.373c0.638,0,1.156,0.518,1.156,1.156v12.403
					C515.12,298.403,514.603,298.921,513.965,298.921z"/>
				<path style="fill:#FFFFFF;stroke:#263238;stroke-width:0.65;stroke-miterlimit:10;" d="M511.836,299.644h-3.373
					c-0.638,0-1.156-0.518-1.156-1.156v-13.848c0-0.639,0.517-1.156,1.156-1.156h3.373c0.638,0,1.156,0.518,1.156,1.156v13.848
					C512.992,299.126,512.474,299.644,511.836,299.644z"/>
			</g>
			<g>
				<path style="fill:#FFFFFF;stroke:#263238;stroke-width:0.65;stroke-miterlimit:10;" d="M522.427,298.921h-3.373
					c-0.638,0-1.156-0.518-1.156-1.156v-12.403c0-0.638,0.517-1.156,1.156-1.156h3.373c0.638,0,1.156,0.518,1.156,1.156v12.403
					C523.583,298.403,523.066,298.921,522.427,298.921z"/>
				<path style="fill:#FFFFFF;stroke:#263238;stroke-width:0.65;stroke-miterlimit:10;" d="M520.299,299.644h-3.373
					c-0.638,0-1.156-0.518-1.156-1.156v-13.848c0-0.639,0.517-1.156,1.156-1.156h3.373c0.638,0,1.156,0.518,1.156,1.156v13.848
					C521.454,299.126,520.937,299.644,520.299,299.644z"/>
			</g>
			<g>
				<path style="fill:#FFFFFF;stroke:#263238;stroke-width:0.65;stroke-miterlimit:10;" d="M530.89,298.921h-3.373
					c-0.638,0-1.156-0.518-1.156-1.156v-12.403c0-0.638,0.517-1.156,1.156-1.156h3.373c0.638,0,1.156,0.518,1.156,1.156v12.403
					C532.046,298.403,531.529,298.921,530.89,298.921z"/>
				<path style="fill:#FFFFFF;stroke:#263238;stroke-width:0.65;stroke-miterlimit:10;" d="M528.761,299.644h-3.373
					c-0.638,0-1.156-0.518-1.156-1.156v-13.848c0-0.639,0.517-1.156,1.156-1.156h3.373c0.638,0,1.156,0.518,1.156,1.156v13.848
					C529.917,299.126,529.4,299.644,528.761,299.644z"/>
			</g>
			<g>
				<path style="fill:#FFFFFF;stroke:#263238;stroke-width:0.65;stroke-miterlimit:10;" d="M539.353,298.921h-3.373
					c-0.638,0-1.156-0.518-1.156-1.156v-12.403c0-0.638,0.518-1.156,1.156-1.156h3.373c0.638,0,1.156,0.518,1.156,1.156v12.403
					C540.509,298.403,539.991,298.921,539.353,298.921z"/>
				<path style="fill:#FFFFFF;stroke:#263238;stroke-width:0.65;stroke-miterlimit:10;" d="M537.224,299.644h-3.373
					c-0.638,0-1.156-0.518-1.156-1.156v-13.848c0-0.639,0.517-1.156,1.156-1.156h3.373c0.638,0,1.156,0.518,1.156,1.156v13.848
					C538.38,299.126,537.862,299.644,537.224,299.644z"/>
			</g>
			<g>
				<path style="fill:#FFFFFF;stroke:#263238;stroke-width:0.65;stroke-miterlimit:10;" d="M547.816,298.921h-3.373
					c-0.638,0-1.156-0.518-1.156-1.156v-12.403c0-0.638,0.518-1.156,1.156-1.156h3.373c0.638,0,1.156,0.518,1.156,1.156v12.403
					C548.971,298.403,548.454,298.921,547.816,298.921z"/>
				<path style="fill:#FFFFFF;stroke:#263238;stroke-width:0.65;stroke-miterlimit:10;" d="M545.687,299.644h-3.373
					c-0.638,0-1.156-0.518-1.156-1.156v-13.848c0-0.639,0.518-1.156,1.156-1.156h3.373c0.638,0,1.156,0.518,1.156,1.156v13.848
					C546.842,299.126,546.325,299.644,545.687,299.644z"/>
			</g>
		</g>
		<g>
			<path style="fill:#263238;stroke:#263238;stroke-miterlimit:10;" d="M666.325,304.39l-3.934,15.91
				c-0.578,2.336,0.848,4.698,3.184,5.276l5.518,1.364l6.025-24.371l-5.518-1.364C669.265,300.628,666.903,302.054,666.325,304.39z"
				/>
			<g>
				<polygon style="fill:#92E3A9;stroke:#263238;stroke-miterlimit:10;" points="708.451,315.843 707.116,321.242 677.186,313.564 
					680.616,299.691 				"/>
				<polygon style="fill:#92E3A9;stroke:#263238;stroke-miterlimit:10;" points="705.262,328.741 706.597,323.342 676.537,316.189 
					673.108,330.061 				"/>
				
					<rect x="672.334" y="297.501" transform="matrix(0.9708 0.24 -0.24 0.9708 95.3507 -152.8601)" style="fill:#FFFFFF;stroke:#263238;stroke-miterlimit:10;" width="5.838" height="35.075"/>
			</g>
		</g>
		<g>
			<g>
				<path style="fill:#FFFFFF;stroke:#263238;stroke-width:0.75;stroke-miterlimit:10;" d="M481.42,240.164h-4.032
					c-0.763,0-1.382-0.597-1.382-1.334v-14.311c0-0.737,0.619-1.334,1.382-1.334h4.032c0.763,0,1.382,0.597,1.382,1.334v14.311
					C482.802,239.567,482.183,240.164,481.42,240.164z"/>
				<path style="fill:#FFFFFF;stroke:#263238;stroke-width:0.75;stroke-miterlimit:10;" d="M478.875,240.998h-4.032
					c-0.763,0-1.382-0.597-1.382-1.334v-15.979c0-0.737,0.618-1.334,1.382-1.334h4.032c0.763,0,1.382,0.597,1.382,1.334v15.979
					C480.257,240.4,479.638,240.998,478.875,240.998z"/>
			</g>
			<g>
				<path style="fill:#FFFFFF;stroke:#263238;stroke-width:0.75;stroke-miterlimit:10;" d="M491.537,240.164h-4.032
					c-0.763,0-1.382-0.597-1.382-1.334v-14.311c0-0.737,0.619-1.334,1.382-1.334h4.032c0.763,0,1.382,0.597,1.382,1.334v14.311
					C492.919,239.567,492.3,240.164,491.537,240.164z"/>
				<path style="fill:#FFFFFF;stroke:#263238;stroke-width:0.75;stroke-miterlimit:10;" d="M488.992,240.998h-4.032
					c-0.763,0-1.382-0.597-1.382-1.334v-15.979c0-0.737,0.619-1.334,1.382-1.334h4.032c0.763,0,1.382,0.597,1.382,1.334v15.979
					C490.374,240.4,489.755,240.998,488.992,240.998z"/>
			</g>
			<g>
				<path style="fill:#FFFFFF;stroke:#263238;stroke-width:0.75;stroke-miterlimit:10;" d="M501.654,240.164h-4.032
					c-0.763,0-1.382-0.597-1.382-1.334v-14.311c0-0.737,0.619-1.334,1.382-1.334h4.032c0.763,0,1.382,0.597,1.382,1.334v14.311
					C503.035,239.567,502.417,240.164,501.654,240.164z"/>
				<path style="fill:#FFFFFF;stroke:#263238;stroke-width:0.75;stroke-miterlimit:10;" d="M499.109,240.998h-4.032
					c-0.763,0-1.382-0.597-1.382-1.334v-15.979c0-0.737,0.618-1.334,1.382-1.334h4.032c0.763,0,1.382,0.597,1.382,1.334v15.979
					C500.49,240.4,499.872,240.998,499.109,240.998z"/>
			</g>
			<g>
				<path style="fill:#FFFFFF;stroke:#263238;stroke-width:0.75;stroke-miterlimit:10;" d="M511.77,240.164h-4.032
					c-0.763,0-1.382-0.597-1.382-1.334v-14.311c0-0.737,0.619-1.334,1.382-1.334h4.032c0.763,0,1.382,0.597,1.382,1.334v14.311
					C513.152,239.567,512.533,240.164,511.77,240.164z"/>
				<path style="fill:#FFFFFF;stroke:#263238;stroke-width:0.75;stroke-miterlimit:10;" d="M509.225,240.998h-4.032
					c-0.763,0-1.382-0.597-1.382-1.334v-15.979c0-0.737,0.618-1.334,1.382-1.334h4.032c0.763,0,1.382,0.597,1.382,1.334v15.979
					C510.607,240.4,509.988,240.998,509.225,240.998z"/>
			</g>
			<g>
				<path style="fill:#FFFFFF;stroke:#263238;stroke-width:0.75;stroke-miterlimit:10;" d="M521.887,240.164h-4.032
					c-0.763,0-1.382-0.597-1.382-1.334v-14.311c0-0.737,0.618-1.334,1.382-1.334h4.032c0.763,0,1.382,0.597,1.382,1.334v14.311
					C523.268,239.567,522.65,240.164,521.887,240.164z"/>
				<path style="fill:#FFFFFF;stroke:#263238;stroke-width:0.75;stroke-miterlimit:10;" d="M519.342,240.998h-4.032
					c-0.763,0-1.382-0.597-1.382-1.334v-15.979c0-0.737,0.619-1.334,1.382-1.334h4.032c0.763,0,1.381,0.597,1.381,1.334v15.979
					C520.723,240.4,520.105,240.998,519.342,240.998z"/>
			</g>
			<g>
				<path style="fill:#FFFFFF;stroke:#263238;stroke-width:0.75;stroke-miterlimit:10;" d="M532.003,240.164h-4.032
					c-0.763,0-1.382-0.597-1.382-1.334v-14.311c0-0.737,0.619-1.334,1.382-1.334h4.032c0.763,0,1.382,0.597,1.382,1.334v14.311
					C533.385,239.567,532.766,240.164,532.003,240.164z"/>
				<path style="fill:#FFFFFF;stroke:#263238;stroke-width:0.75;stroke-miterlimit:10;" d="M529.458,240.998h-4.032
					c-0.763,0-1.382-0.597-1.382-1.334v-15.979c0-0.737,0.619-1.334,1.382-1.334h4.032c0.763,0,1.381,0.597,1.381,1.334v15.979
					C530.84,240.4,530.221,240.998,529.458,240.998z"/>
			</g>
			<g>
				<path style="fill:#FFFFFF;stroke:#263238;stroke-width:0.75;stroke-miterlimit:10;" d="M542.12,240.164h-4.032
					c-0.763,0-1.382-0.597-1.382-1.334v-14.311c0-0.737,0.619-1.334,1.382-1.334h4.032c0.763,0,1.382,0.597,1.382,1.334v14.311
					C543.502,239.567,542.883,240.164,542.12,240.164z"/>
				<path style="fill:#FFFFFF;stroke:#263238;stroke-width:0.75;stroke-miterlimit:10;" d="M539.575,240.998h-4.032
					c-0.763,0-1.381-0.597-1.381-1.334v-15.979c0-0.737,0.618-1.334,1.381-1.334h4.032c0.763,0,1.382,0.597,1.382,1.334v15.979
					C540.957,240.4,540.338,240.998,539.575,240.998z"/>
			</g>
			<g>
				<path style="fill:#FFFFFF;stroke:#263238;stroke-width:0.75;stroke-miterlimit:10;" d="M552.237,240.164h-4.032
					c-0.763,0-1.382-0.597-1.382-1.334v-14.311c0-0.737,0.618-1.334,1.382-1.334h4.032c0.763,0,1.382,0.597,1.382,1.334v14.311
					C553.618,239.567,553,240.164,552.237,240.164z"/>
				<path style="fill:#FFFFFF;stroke:#263238;stroke-width:0.75;stroke-miterlimit:10;" d="M549.692,240.998h-4.032
					c-0.763,0-1.382-0.597-1.382-1.334v-15.979c0-0.737,0.619-1.334,1.382-1.334h4.032c0.763,0,1.381,0.597,1.381,1.334v15.979
					C551.073,240.4,550.455,240.998,549.692,240.998z"/>
			</g>
			<g>
				<path style="fill:#FFFFFF;stroke:#263238;stroke-width:0.75;stroke-miterlimit:10;" d="M558.989,240.338
					c-0.257-0.112-0.525-0.163-0.828-0.165c0.018-0.011-0.215-0.047-0.377-0.114c-0.165-0.068-0.314-0.165-0.439-0.286
					c-0.25-0.241-0.405-0.575-0.405-0.943v-14.311c0-0.368,0.155-0.702,0.405-0.943c0.125-0.121,0.274-0.218,0.439-0.286
					c0.169-0.067,0.299-0.109,0.698-0.093c2.383,0.037,4.799,0.529,7.021,1.461c1.272,0.55,1.938,1.614,1.548,2.255l-7.141,12.402
					C559.535,239.93,559.111,240.41,558.989,240.338z"/>
				<path style="fill:#FFFFFF;stroke:#263238;stroke-width:0.75;stroke-miterlimit:10;" d="M558.351,241.029
					c-0.043-0.009-0.086-0.029-0.137-0.015c-0.091,0.005,0.045-0.023-0.421-0.016h-2.016c-0.763,0-1.382-0.597-1.382-1.334v-15.979
					c0-0.737,0.619-1.334,1.382-1.334h2.016c0.206-0.008,1.012,0.019,1.593,0.053c0.622,0.022,1.244,0.105,1.864,0.205
					c1.428,0.199,2.365,1.16,2.145,1.839l-4.492,15.334C558.673,240.504,558.44,241.017,558.351,241.029z"/>
			</g>
			<g>
				<path style="fill:#FFFFFF;stroke:#263238;stroke-width:0.75;stroke-miterlimit:10;" d="M560.327,241.908
					c-0.063-0.269-0.177-0.525-0.342-0.761c-0.083-0.121,0.265-0.621,0.795-1.129l10.557-9.662c0.532-0.51,1.737-0.115,2.531,1.016
					c1.382,1.961,2.397,4.195,2.961,6.538c0.337,1.344-0.176,2.519-0.892,2.578l-14.226,1.559
					C560.962,242.112,560.371,242.041,560.327,241.908z"/>
				<path style="fill:#FFFFFF;stroke:#263238;stroke-width:0.75;stroke-miterlimit:10;" d="M559.406,241.797
					c-0.081-0.156-0.199-0.308-0.34-0.43c-0.063-0.063,0.197-0.6,0.603-1.23l8.95-13.237c0.387-0.608,1.699-0.478,2.773,0.476
					c1.876,1.651,3.441,3.653,4.591,5.885c0.666,1.283,0.471,2.588-0.227,2.821l-15.029,5.427
					C560.031,241.742,559.448,241.869,559.406,241.797z"/>
			</g>
			<g>
				<path style="fill:#FFFFFF;stroke:#263238;stroke-width:0.75;stroke-miterlimit:10;" d="M560.403,249.999v-4.032
					c0-0.763,0.597-1.382,1.334-1.382h14.311c0.737,0,1.334,0.618,1.334,1.382v4.032c0,0.763-0.597,1.382-1.334,1.382h-14.311
					C561,251.38,560.403,250.762,560.403,249.999z"/>
				<path style="fill:#FFFFFF;stroke:#263238;stroke-width:0.75;stroke-miterlimit:10;" d="M559.569,247.454v-4.032
					c0-0.379,0.15-0.733,0.39-0.971c0.229-0.044,0.561-0.094,0.929-0.108l15.967-0.604c0.368-0.015,0.715,0.245,0.969,0.7
					c0.242,0.262,0.391,0.599,0.391,0.983v4.032c0,0.763-0.597,1.382-1.334,1.382h-15.979
					C560.167,248.835,559.569,248.217,559.569,247.454z"/>
				<path style="fill:#92E3A9;stroke:#263238;stroke-miterlimit:10;" d="M584.794,248.673h-30.781c-0.937,0-1.767,0.602-2.059,1.492
					l-1.395,4.256h37.691l-1.395-4.256C586.561,249.275,585.73,248.673,584.794,248.673z"/>
			</g>
			<g>
				<path style="fill:#FFFFFF;stroke:#263238;stroke-width:0.75;stroke-miterlimit:10;" d="M560.403,260.115v-4.032
					c0-0.763,0.597-1.382,1.334-1.382h14.311c0.737,0,1.334,0.618,1.334,1.382v4.032c0,0.763-0.597,1.382-1.334,1.382h-14.311
					C561,261.497,560.403,260.878,560.403,260.115z"/>
			</g>
		</g>
		<path style="fill:#FFFFFF;stroke:#263238;stroke-miterlimit:10;" d="M610.536,362.661h-73.698
			c-5.607,0-10.152-4.545-10.152-10.152l9.4-91.742c0-4.485,3.636-8.122,8.122-8.122h58.958c4.485,0,8.121,3.636,8.121,8.122
			l9.4,91.742C620.688,358.116,616.143,362.661,610.536,362.661z"/>
		<g>
			<polygon style="fill:#263238;stroke:#263238;stroke-miterlimit:10;" points="519.929,348.759 587.736,320.513 608.402,400.404 
				529.982,400.404 			"/>
			
				<ellipse transform="matrix(0.9742 -0.2256 0.2256 0.9742 -65.065 146.51)" style="fill:#92E3A9;stroke:#263238;stroke-miterlimit:10;" cx="608.402" cy="357.893" rx="42.511" ry="42.511"/>
			
				<ellipse transform="matrix(0.9869 -0.1615 0.1615 0.9869 -53.3945 90.5133)" style="fill:#92E3A9;stroke:#263238;stroke-miterlimit:10;" cx="529.982" cy="373.646" rx="26.758" ry="26.758"/>
			
				<ellipse transform="matrix(0.9877 -0.1566 0.1566 0.9877 -51.9869 87.6313)" style="fill:#FFFFFF;stroke:#263238;stroke-miterlimit:10;" cx="529.982" cy="373.646" rx="19.078" ry="19.078"/>
			<circle style="fill:#FFFFFF;stroke:#263238;stroke-miterlimit:10;" cx="608.402" cy="357.893" r="31.733"/>
			<line style="fill:none;stroke:#263238;stroke-miterlimit:10;" x1="608.402" y1="357.893" x2="637.768" y2="369.482"/>
			<circle style="fill:#FFFFFF;stroke:#263238;stroke-miterlimit:10;" cx="608.402" cy="357.893" r="4.174"/>
			<line style="fill:#FFFFFF;stroke:#263238;stroke-miterlimit:10;" x1="529.982" y1="373.646" x2="513.045" y2="382.354"/>
			<path style="fill:#FFFFFF;stroke:#263238;stroke-miterlimit:10;" d="M534.156,373.646c0-2.305-1.869-4.174-4.174-4.174
				c-2.305,0-4.174,1.869-4.174,4.174c0,2.305,1.869,4.174,4.174,4.174C532.287,377.82,534.156,375.951,534.156,373.646z"/>
		</g>
		<g>
			<g>
				<path style="fill:#FFFFFF;stroke:#263238;stroke-width:0.65;stroke-miterlimit:10;" d="M580.341,298.495l-3.25-0.782
					c-0.615-0.148-0.993-0.771-0.843-1.392l2.902-12.059c0.149-0.621,0.769-1.004,1.384-0.856l3.25,0.782
					c0.615,0.148,0.993,0.771,0.843,1.392l-2.902,12.059C581.576,298.259,580.956,298.643,580.341,298.495z"/>
				<path style="fill:#FFFFFF;stroke:#263238;stroke-width:0.65;stroke-miterlimit:10;" d="M578.12,298.703l-3.25-0.782
					c-0.615-0.148-0.993-0.771-0.843-1.392l3.24-13.464c0.149-0.621,0.769-1.004,1.384-0.856l3.25,0.782
					c0.615,0.148,0.993,0.771,0.843,1.392l-3.24,13.464C579.355,298.468,578.735,298.851,578.12,298.703z"/>
			</g>
			<g>
				<path style="fill:#FFFFFF;stroke:#263238;stroke-width:0.65;stroke-miterlimit:10;" d="M588.497,300.457l-3.25-0.782
					c-0.615-0.148-0.993-0.771-0.843-1.392l2.902-12.059c0.149-0.621,0.769-1.004,1.384-0.856l3.25,0.782
					c0.615,0.148,0.993,0.771,0.843,1.392l-2.902,12.059C589.732,300.222,589.112,300.605,588.497,300.457z"/>
				<path style="fill:#FFFFFF;stroke:#263238;stroke-width:0.65;stroke-miterlimit:10;" d="M586.276,300.666l-3.25-0.782
					c-0.615-0.148-0.993-0.771-0.843-1.392l3.24-13.464c0.149-0.621,0.769-1.004,1.384-0.856l3.25,0.782
					c0.615,0.148,0.993,0.771,0.843,1.392l-3.24,13.464C587.511,300.431,586.892,300.814,586.276,300.666z"/>
			</g>
			<g>
				<path style="fill:#FFFFFF;stroke:#263238;stroke-width:0.65;stroke-miterlimit:10;" d="M596.653,302.42l-3.25-0.782
					c-0.615-0.148-0.993-0.771-0.843-1.392l2.902-12.059c0.149-0.621,0.769-1.004,1.384-0.856l3.25,0.782
					c0.615,0.148,0.993,0.771,0.843,1.392l-2.902,12.059C597.888,302.185,597.268,302.568,596.653,302.42z"/>
				<path style="fill:#FFFFFF;stroke:#263238;stroke-width:0.65;stroke-miterlimit:10;" d="M594.432,302.629l-3.25-0.782
					c-0.615-0.148-0.993-0.771-0.843-1.392l3.24-13.464c0.149-0.621,0.769-1.004,1.384-0.856l3.25,0.782
					c0.615,0.148,0.993,0.771,0.843,1.392l-3.24,13.464C595.667,302.394,595.048,302.777,594.432,302.629z"/>
			</g>
			<g>
				<path style="fill:#FFFFFF;stroke:#263238;stroke-width:0.65;stroke-miterlimit:10;" d="M604.809,304.383l-3.25-0.782
					c-0.615-0.148-0.993-0.771-0.843-1.392l2.902-12.059c0.149-0.621,0.769-1.004,1.384-0.856l3.25,0.782
					c0.615,0.148,0.993,0.771,0.843,1.392l-2.902,12.059C606.044,304.148,605.424,304.531,604.809,304.383z"/>
				<path style="fill:#FFFFFF;stroke:#263238;stroke-width:0.65;stroke-miterlimit:10;" d="M602.589,304.592l-3.25-0.782
					c-0.615-0.148-0.993-0.771-0.843-1.392l3.24-13.464c0.149-0.621,0.769-1.004,1.384-0.856l3.25,0.782
					c0.615,0.148,0.993,0.771,0.843,1.392l-3.24,13.464C603.823,304.357,603.204,304.74,602.589,304.592z"/>
			</g>
			<g>
				<path style="fill:#FFFFFF;stroke:#263238;stroke-width:0.65;stroke-miterlimit:10;" d="M612.965,306.346l-3.25-0.782
					c-0.615-0.148-0.993-0.771-0.843-1.392l2.902-12.059c0.149-0.621,0.769-1.004,1.384-0.856l3.25,0.782
					c0.615,0.148,0.993,0.771,0.843,1.392l-2.902,12.059C614.2,306.111,613.581,306.494,612.965,306.346z"/>
				<path style="fill:#FFFFFF;stroke:#263238;stroke-width:0.65;stroke-miterlimit:10;" d="M610.745,306.555l-3.25-0.782
					c-0.615-0.148-0.993-0.771-0.843-1.392l3.24-13.464c0.149-0.621,0.769-1.004,1.384-0.856l3.25,0.782
					c0.615,0.148,0.993,0.771,0.843,1.392l-3.24,13.464C611.979,306.32,611.36,306.703,610.745,306.555z"/>
			</g>
			<g>
				<path style="fill:#FFFFFF;stroke:#263238;stroke-width:0.65;stroke-miterlimit:10;" d="M621.121,308.309l-3.25-0.782
					c-0.615-0.148-0.993-0.771-0.843-1.392l2.902-12.059c0.149-0.621,0.769-1.004,1.384-0.856l3.25,0.782
					c0.615,0.148,0.993,0.771,0.843,1.392l-2.902,12.059C622.356,308.074,621.737,308.457,621.121,308.309z"/>
				<path style="fill:#FFFFFF;stroke:#263238;stroke-width:0.65;stroke-miterlimit:10;" d="M618.901,308.518l-3.25-0.782
					c-0.615-0.148-0.993-0.771-0.843-1.392l3.24-13.464c0.149-0.621,0.769-1.004,1.384-0.856l3.25,0.782
					c0.615,0.148,0.993,0.771,0.843,1.392l-3.24,13.464C620.135,308.283,619.516,308.666,618.901,308.518z"/>
			</g>
			<g>
				<path style="fill:#FFFFFF;stroke:#263238;stroke-width:0.65;stroke-miterlimit:10;" d="M629.277,310.272l-3.25-0.782
					c-0.615-0.148-0.993-0.771-0.843-1.392l2.902-12.059c0.149-0.621,0.769-1.004,1.384-0.856l3.25,0.782
					c0.615,0.148,0.993,0.771,0.843,1.392l-2.902,12.059C630.512,310.037,629.893,310.42,629.277,310.272z"/>
				<path style="fill:#FFFFFF;stroke:#263238;stroke-width:0.65;stroke-miterlimit:10;" d="M627.057,310.481l-3.25-0.782
					c-0.615-0.148-0.993-0.771-0.843-1.392l3.24-13.464c0.15-0.621,0.769-1.004,1.384-0.856l3.25,0.782
					c0.615,0.148,0.993,0.771,0.843,1.392l-3.24,13.464C628.292,310.245,627.672,310.629,627.057,310.481z"/>
			</g>
			<g>
				<path style="fill:#FFFFFF;stroke:#263238;stroke-width:0.65;stroke-miterlimit:10;" d="M637.433,312.235l-3.25-0.782
					c-0.615-0.148-0.993-0.771-0.843-1.392l2.902-12.059c0.149-0.621,0.769-1.004,1.384-0.856l3.25,0.782
					c0.615,0.148,0.993,0.771,0.843,1.392l-2.902,12.059C638.668,312,638.049,312.383,637.433,312.235z"/>
				<path style="fill:#FFFFFF;stroke:#263238;stroke-width:0.65;stroke-miterlimit:10;" d="M635.213,312.444l-3.25-0.782
					c-0.615-0.148-0.993-0.771-0.843-1.392l3.24-13.464c0.149-0.621,0.769-1.004,1.384-0.856l3.25,0.782
					c0.615,0.148,0.993,0.771,0.843,1.392l-3.24,13.464C636.448,312.208,635.828,312.591,635.213,312.444z"/>
			</g>
			<g>
				<path style="fill:#FFFFFF;stroke:#263238;stroke-width:0.65;stroke-miterlimit:10;" d="M645.59,314.198l-3.25-0.782
					c-0.615-0.148-0.993-0.771-0.843-1.392l2.902-12.059c0.149-0.621,0.769-1.004,1.384-0.856l3.25,0.782
					c0.615,0.148,0.993,0.771,0.843,1.392l-2.902,12.059C646.824,313.962,646.205,314.346,645.59,314.198z"/>
				<path style="fill:#FFFFFF;stroke:#263238;stroke-width:0.65;stroke-miterlimit:10;" d="M643.369,314.406l-3.25-0.782
					c-0.615-0.148-0.993-0.771-0.843-1.392l3.24-13.464c0.149-0.621,0.769-1.004,1.384-0.856l3.25,0.782
					c0.615,0.148,0.993,0.771,0.843,1.392l-3.24,13.464C644.604,314.171,643.984,314.554,643.369,314.406z"/>
			</g>
			<g>
				<path style="fill:#FFFFFF;stroke:#263238;stroke-width:0.65;stroke-miterlimit:10;" d="M653.746,316.16l-3.25-0.782
					c-0.615-0.148-0.993-0.771-0.843-1.392l2.902-12.059c0.149-0.621,0.769-1.004,1.384-0.856l3.25,0.782
					c0.615,0.148,0.993,0.771,0.843,1.392l-2.902,12.059C654.98,315.925,654.361,316.308,653.746,316.16z"/>
				<path style="fill:#FFFFFF;stroke:#263238;stroke-width:0.65;stroke-miterlimit:10;" d="M651.525,316.369l-3.25-0.782
					c-0.615-0.148-0.993-0.771-0.843-1.392l3.24-13.464c0.149-0.621,0.769-1.004,1.384-0.856l3.25,0.782
					c0.615,0.148,0.993,0.771,0.843,1.392l-3.24,13.464C652.76,316.134,652.14,316.517,651.525,316.369z"/>
			</g>
			<g>
				<path style="fill:#FFFFFF;stroke:#263238;stroke-width:0.65;stroke-miterlimit:10;" d="M661.902,318.123l-3.25-0.782
					c-0.615-0.148-0.993-0.771-0.843-1.392l2.902-12.059c0.149-0.621,0.769-1.004,1.384-0.856l3.25,0.782
					c0.615,0.148,0.993,0.771,0.843,1.392l-2.902,12.059C663.137,317.888,662.517,318.271,661.902,318.123z"/>
				<path style="fill:#FFFFFF;stroke:#263238;stroke-width:0.65;stroke-miterlimit:10;" d="M659.681,318.332l-3.25-0.782
					c-0.615-0.148-0.993-0.771-0.843-1.392l3.24-13.464c0.149-0.621,0.769-1.004,1.384-0.856l3.25,0.782
					c0.615,0.148,0.993,0.771,0.843,1.392l-3.24,13.464C660.916,318.097,660.296,318.48,659.681,318.332z"/>
			</g>
		</g>
		<g>
			
				<ellipse transform="matrix(0.9727 -0.2319 0.2319 0.9727 -51.4983 141.2992)" style="fill:#92E3A9;stroke:#263238;stroke-miterlimit:10;" cx="575.334" cy="289.722" rx="21.354" ry="21.354"/>
			<line style="fill:#FFFFFF;stroke:#263238;stroke-miterlimit:10;" x1="554.337" y1="285.074" x2="575.334" y2="289.722"/>
			<circle style="fill:#FFFFFF;stroke:#263238;stroke-miterlimit:10;" cx="575.334" cy="289.722" r="10.536"/>
		</g>
		<path style="fill:#92E3A9;stroke:#263238;stroke-miterlimit:10;" d="M529.52,324.858h10.869c1.948,0,3.528-1.58,3.528-3.528
			v-48.254c0-1.949-1.58-3.528-3.528-3.528h-5.202L529.52,324.858z"/>
	</g>
</g>
<g id="Robot_1">
	<g>
		<g>
			<g>
				<path style="fill:#FFFFFF;stroke:#263238;stroke-width:0.75;stroke-miterlimit:10;" d="M232.667,240.164h-4.032
					c-0.763,0-1.382-0.597-1.382-1.334v-14.311c0-0.737,0.618-1.334,1.382-1.334h4.032c0.763,0,1.382,0.597,1.382,1.334v14.311
					C234.048,239.567,233.43,240.164,232.667,240.164z"/>
				<path style="fill:#FFFFFF;stroke:#263238;stroke-width:0.75;stroke-miterlimit:10;" d="M230.122,240.998h-4.032
					c-0.763,0-1.382-0.597-1.382-1.334v-15.979c0-0.737,0.619-1.334,1.382-1.334h4.032c0.763,0,1.382,0.597,1.382,1.334v15.979
					C231.503,240.4,230.885,240.998,230.122,240.998z"/>
			</g>
			<g>
				<path style="fill:#FFFFFF;stroke:#263238;stroke-width:0.75;stroke-miterlimit:10;" d="M242.783,240.164h-4.032
					c-0.763,0-1.382-0.597-1.382-1.334v-14.311c0-0.737,0.618-1.334,1.382-1.334h4.032c0.763,0,1.382,0.597,1.382,1.334v14.311
					C244.165,239.567,243.546,240.164,242.783,240.164z"/>
				<path style="fill:#FFFFFF;stroke:#263238;stroke-width:0.75;stroke-miterlimit:10;" d="M240.238,240.998h-4.032
					c-0.763,0-1.382-0.597-1.382-1.334v-15.979c0-0.737,0.619-1.334,1.382-1.334h4.032c0.763,0,1.382,0.597,1.382,1.334v15.979
					C241.62,240.4,241.001,240.998,240.238,240.998z"/>
			</g>
			<g>
				<path style="fill:#FFFFFF;stroke:#263238;stroke-width:0.75;stroke-miterlimit:10;" d="M252.9,240.164h-4.032
					c-0.763,0-1.382-0.597-1.382-1.334v-14.311c0-0.737,0.618-1.334,1.382-1.334h4.032c0.763,0,1.382,0.597,1.382,1.334v14.311
					C254.281,239.567,253.663,240.164,252.9,240.164z"/>
				<path style="fill:#FFFFFF;stroke:#263238;stroke-width:0.75;stroke-miterlimit:10;" d="M250.355,240.998h-4.032
					c-0.763,0-1.382-0.597-1.382-1.334v-15.979c0-0.737,0.619-1.334,1.382-1.334h4.032c0.763,0,1.382,0.597,1.382,1.334v15.979
					C251.736,240.4,251.118,240.998,250.355,240.998z"/>
			</g>
			<g>
				<path style="fill:#FFFFFF;stroke:#263238;stroke-width:0.75;stroke-miterlimit:10;" d="M263.016,240.164h-4.032
					c-0.763,0-1.382-0.597-1.382-1.334v-14.311c0-0.737,0.618-1.334,1.382-1.334h4.032c0.763,0,1.382,0.597,1.382,1.334v14.311
					C264.398,239.567,263.779,240.164,263.016,240.164z"/>
				<path style="fill:#FFFFFF;stroke:#263238;stroke-width:0.75;stroke-miterlimit:10;" d="M260.471,240.998h-4.032
					c-0.763,0-1.382-0.597-1.382-1.334v-15.979c0-0.737,0.619-1.334,1.382-1.334h4.032c0.763,0,1.382,0.597,1.382,1.334v15.979
					C261.853,240.4,261.234,240.998,260.471,240.998z"/>
			</g>
			<g>
				<path style="fill:#FFFFFF;stroke:#263238;stroke-width:0.75;stroke-miterlimit:10;" d="M272.516,223.185h-3.415
					c-0.763,0-1.382,0.597-1.382,1.334v14.311c0,0.737,0.618,1.334,1.382,1.334h3.415V223.185z"/>
				<path style="fill:#FFFFFF;stroke:#263238;stroke-width:0.75;stroke-miterlimit:10;" d="M270.588,240.998h-4.032
					c-0.763,0-1.382-0.597-1.382-1.334v-15.979c0-0.737,0.619-1.334,1.382-1.334h4.032c0.763,0,1.382,0.597,1.382,1.334v15.979
					C271.97,240.4,271.351,240.998,270.588,240.998z"/>
			</g>
		</g>
		<g>
			<g>
				<polygon style="fill:#FFFFFF;stroke:#263238;stroke-miterlimit:10;" points="205.916,184.613 217.843,169.757 215.229,188.774 
									"/>
				<path style="fill:#FFFFFF;stroke:#263238;stroke-miterlimit:10;" d="M218.101,193.817c-1.264,2.837-6.444,3.286-11.569,1.002
					c-5.125-2.284-8.255-6.435-6.991-9.272c1.264-2.837,6.444-3.286,11.569-1.002C216.236,186.828,219.365,190.98,218.101,193.817z"
					/>
				<path style="fill:#FFFFFF;stroke:#263238;stroke-miterlimit:10;" d="M148.694,231.014l-4.46-1.987
					c-4.676-2.083-6.777-7.563-4.694-12.238l7.223-16.21c2.084-4.676,7.563-6.777,12.239-4.693l4.459,1.987L148.694,231.014z"/>
				<path style="fill:#FFFFFF;stroke:#263238;stroke-miterlimit:10;" d="M218.294,262.027l4.46,1.987
					c4.676,2.084,10.155-0.018,12.238-4.694l7.223-16.21c2.083-4.676-0.018-10.155-4.694-12.238l-4.459-1.987L218.294,262.027z"/>
				
					<ellipse transform="matrix(0.9337 -0.3581 0.3581 0.9337 -69.8843 83.6093)" style="fill:#92E3A9;stroke:#263238;stroke-miterlimit:10;" cx="190.809" cy="230.497" rx="45.332" ry="45.332"/>
				<g>
					<path style="fill:#FFFFFF;stroke:#263238;stroke-miterlimit:10;" d="M201.966,235.469c-5.744,12.89-4.983,27.027,0.868,38.736
						c12.619-3.479,23.639-12.367,29.383-25.257c5.744-12.89,4.983-27.027-0.868-38.736
						C218.73,213.691,207.709,222.579,201.966,235.469z"/>
					<path style="fill:#FFFFFF;stroke:#263238;stroke-miterlimit:10;" d="M149.401,212.046c-5.557,12.471-5.015,26.106,0.324,37.584
						c12.105-3.705,22.605-12.419,28.162-24.891c5.557-12.471,5.015-26.106-0.324-37.584
						C165.459,190.86,154.958,199.575,149.401,212.046z"/>
				</g>
				<path style="fill:#263238;stroke:#263238;stroke-miterlimit:10;" d="M204.635,255.147l-44.674-19.907
					c-3.863-1.721-5.599-6.248-3.877-10.11l8.387-18.823c1.721-3.863,6.248-5.599,10.11-3.878l44.674,19.907
					c3.863,1.721,5.599,6.248,3.878,10.11l-8.388,18.823C213.024,255.132,208.498,256.868,204.635,255.147z"/>
				<path style="fill:#FFFFFF;stroke:#263238;stroke-miterlimit:10;" d="M178.763,224.154c1.06-2.38-0.009-5.168-2.389-6.228
					s-5.168,0.009-6.228,2.389c-1.06,2.38,0.009,5.168,2.389,6.228C174.914,227.603,177.703,226.533,178.763,224.154z"/>
				<path style="fill:#FFFFFF;stroke:#263238;stroke-miterlimit:10;" d="M209.254,237.741c1.06-2.38-0.009-5.168-2.389-6.228
					c-2.38-1.06-5.168,0.009-6.228,2.389c-1.06,2.38,0.009,5.168,2.389,6.228C205.405,241.19,208.194,240.12,209.254,237.741z"/>
				<path style="fill:#92E3A9;stroke:#263238;stroke-miterlimit:10;" d="M223.849,168.46c1.06-2.38-0.009-5.168-2.389-6.228
					c-2.38-1.06-5.168,0.009-6.228,2.389c-1.06,2.38,0.009,5.168,2.389,6.228C220,171.909,222.788,170.84,223.849,168.46z"/>
			</g>
		</g>
		<g>
			<g>
				<g>
					<path style="fill:#FFFFFF;stroke:#263238;stroke-width:0.65;stroke-miterlimit:10;" d="M145.51,153.997l2.359,2.456
						c0.446,0.465,0.435,1.2-0.025,1.643l-8.945,8.591c-0.461,0.442-1.196,0.424-1.642-0.041l-2.359-2.456
						c-0.447-0.465-0.435-1.2,0.025-1.643l8.945-8.591C144.329,153.514,145.064,153.532,145.51,153.997z"/>
					<path style="fill:#FFFFFF;stroke:#263238;stroke-width:0.65;stroke-miterlimit:10;" d="M147.521,155.047l2.359,2.456
						c0.447,0.465,0.435,1.2-0.025,1.643l-9.988,9.593c-0.461,0.442-1.196,0.424-1.642-0.041l-2.359-2.456
						c-0.447-0.465-0.435-1.2,0.025-1.643l9.988-9.593C146.339,154.564,147.074,154.582,147.521,155.047z"/>
				</g>
				<g>
					<path style="fill:#FFFFFF;stroke:#263238;stroke-width:0.65;stroke-miterlimit:10;" d="M139.591,147.833l2.359,2.456
						c0.446,0.465,0.435,1.2-0.026,1.643l-8.945,8.591c-0.46,0.442-1.196,0.424-1.642-0.041l-2.359-2.456
						c-0.446-0.465-0.435-1.2,0.025-1.643l8.945-8.591C138.409,147.35,139.144,147.368,139.591,147.833z"/>
					<path style="fill:#FFFFFF;stroke:#263238;stroke-width:0.65;stroke-miterlimit:10;" d="M141.601,148.883l2.359,2.456
						c0.446,0.465,0.435,1.2-0.025,1.643l-9.988,9.593c-0.46,0.442-1.196,0.424-1.642-0.041l-2.359-2.456
						c-0.446-0.465-0.435-1.2,0.025-1.643l9.988-9.592C140.419,148.4,141.155,148.418,141.601,148.883z"/>
				</g>
				<g>
					<path style="fill:#FFFFFF;stroke:#263238;stroke-width:0.65;stroke-miterlimit:10;" d="M131.81,140.845
						c1.498,0.872,2.853,1.968,4.078,3.165c0.16,0.154,0.359,0.384,0.391,0.507c0.055,0.141,0.081,0.291,0.078,0.439
						c-0.005,0.297-0.123,0.592-0.353,0.813l-8.945,8.591c-0.23,0.221-0.529,0.327-0.826,0.32c-0.149-0.004-0.297-0.036-0.436-0.096
						c-0.157-0.083-0.193-0.051-0.266-0.121c-0.402-0.38-0.815-0.739-1.287-0.997c-0.131-0.077-0.183-0.264-0.174-0.508
						c-0.001-0.224,0.062-0.512,0.202-0.798l5.468-11.133c0.14-0.287,0.441-0.466,0.824-0.514
						C130.936,140.483,131.387,140.593,131.81,140.845z"/>
					<path style="fill:#FFFFFF;stroke:#263238;stroke-width:0.65;stroke-miterlimit:10;" d="M134.951,142.167
						c0.651,0.569,1.351,1.23,1.91,1.781l1.18,1.228c0.446,0.465,0.435,1.2-0.025,1.643l-9.988,9.593
						c-0.461,0.442-1.196,0.424-1.642-0.041l-1.18-1.228c-0.26-0.235-0.389-0.35-0.579-0.543c-0.224-0.144-0.097-0.712,0.261-1.241
						l7.935-11.35C133.179,141.481,134.143,141.539,134.951,142.167z"/>
				</g>
				<g>
					<path style="fill:#FFFFFF;stroke:#263238;stroke-width:0.65;stroke-miterlimit:10;" d="M119.365,137.846
						c0.857-0.095,1.721-0.029,2.582-0.025c0.858,0.054,1.717,0.161,2.568,0.29c0.97,0.199,1.612,0.886,1.441,1.501l-3.144,11.998
						c-0.171,0.615-0.549,1.075-0.838,0.995c-0.271-0.027-0.542-0.068-0.814-0.09c-0.274,0.027-0.549-0.043-0.821,0.013
						c-0.299,0.035-0.63-0.48-0.731-1.092l-1.834-12.267C117.668,138.523,118.38,137.927,119.365,137.846z"/>
					<path style="fill:#FFFFFF;stroke:#263238;stroke-width:0.65;stroke-miterlimit:10;" d="M122.683,137.154
						c0.885,0.102,1.775,0.176,2.644,0.392l1.306,0.298c0.43,0.12,0.853,0.267,1.278,0.406c0.98,0.305,1.518,1.139,1.256,1.72
						l-5.514,12.703c-0.263,0.581-0.662,0.946-0.921,0.885l-0.341-0.12c-0.12-0.019-0.239-0.042-0.357-0.071
						c-0.231-0.083-0.482-0.064-0.721-0.111c-0.266-0.036-0.492-0.521-0.499-1.172l0.038-13.848
						C120.844,137.611,121.668,137.054,122.683,137.154z"/>
				</g>
				<g>
					<path style="fill:#FFFFFF;stroke:#263238;stroke-width:0.65;stroke-miterlimit:10;" d="M107.413,142.463
						c0.68-0.532,1.401-1.021,2.122-1.497c0.757-0.418,1.502-0.872,2.295-1.217c0.911-0.395,1.828-0.2,2.035,0.404l4.216,11.664
						c0.208,0.603,0.161,1.203-0.117,1.307c-0.253,0.097-0.466,0.267-0.715,0.372l-0.658,0.467
						c-0.215,0.208-0.767-0.016-1.212-0.473l-8.513-9.02C106.422,144.014,106.657,143.103,107.413,142.463z"/>
					<path style="fill:#FFFFFF;stroke:#263238;stroke-width:0.65;stroke-miterlimit:10;" d="M109.77,140.003
						c0.779-0.445,1.572-0.861,2.406-1.187c0.818-0.368,1.666-0.644,2.526-0.889c0.976-0.316,1.895,0.097,2.005,0.708l2.679,13.587
						c0.119,0.644-0.017,1.141-0.262,1.249c-0.233,0.066-0.468,0.128-0.682,0.242c-0.232,0.072-0.436,0.199-0.644,0.317
						c-0.247,0.098-0.692-0.155-1.07-0.689l-7.858-11.403C108.509,141.431,108.859,140.482,109.77,140.003z"/>
				</g>
				<g>
					<path style="fill:#FFFFFF;stroke:#263238;stroke-width:0.65;stroke-miterlimit:10;" d="M100.663,149.91l2.168-2.627
						c0.41-0.497,1.142-0.571,1.634-0.164l9.566,7.894c0.493,0.406,0.559,1.139,0.149,1.636l-2.168,2.627
						c-0.41,0.497-1.142,0.571-1.634,0.164l-9.566-7.894C100.32,151.139,100.253,150.407,100.663,149.91z"/>
					<path style="fill:#FFFFFF;stroke:#263238;stroke-width:0.65;stroke-miterlimit:10;" d="M101.474,147.791l2.168-2.627
						c0.638-0.727,1.598-0.987,2.042-0.529l9.958,9.623c0.446,0.46,0.693,0.964,0.465,1.191l-2.168,2.627
						c-0.41,0.497-1.142,0.571-1.635,0.164l-10.681-8.814C101.131,149.021,101.064,148.288,101.474,147.791z"/>
				</g>
				<g>
					<path style="fill:#FFFFFF;stroke:#263238;stroke-width:0.65;stroke-miterlimit:10;" d="M95.224,156.501l2.168-2.627
						c0.41-0.497,1.142-0.571,1.634-0.164l9.566,7.894c0.493,0.406,0.559,1.139,0.149,1.636l-2.168,2.627
						c-0.41,0.497-1.142,0.571-1.635,0.164l-9.566-7.894C94.881,157.73,94.814,156.998,95.224,156.501z"/>
					<path style="fill:#FFFFFF;stroke:#263238;stroke-width:0.65;stroke-miterlimit:10;" d="M96.035,154.383l2.168-2.627
						c0.41-0.497,1.142-0.571,1.634-0.164l10.681,8.814c0.492,0.406,0.559,1.139,0.149,1.636l-2.168,2.627
						c-0.41,0.497-1.142,0.571-1.635,0.164l-10.681-8.814C95.691,155.612,95.625,154.88,96.035,154.383z"/>
				</g>
				<g>
					<path style="fill:#FFFFFF;stroke:#263238;stroke-width:0.65;stroke-miterlimit:10;" d="M89.785,163.092l2.168-2.627
						c0.41-0.497,1.142-0.571,1.634-0.164l9.566,7.894c0.493,0.406,0.559,1.139,0.149,1.636l-2.168,2.627
						c-0.41,0.497-1.142,0.571-1.635,0.164l-9.566-7.894C89.441,164.322,89.375,163.59,89.785,163.092z"/>
					<path style="fill:#FFFFFF;stroke:#263238;stroke-width:0.65;stroke-miterlimit:10;" d="M90.596,160.974l2.168-2.627
						c0.41-0.497,1.142-0.571,1.635-0.164l10.681,8.814c0.493,0.406,0.559,1.139,0.149,1.636l-2.168,2.627
						c-0.41,0.497-1.142,0.571-1.634,0.164l-10.681-8.814C90.252,162.204,90.186,161.471,90.596,160.974z"/>
				</g>
				<g>
					<path style="fill:#FFFFFF;stroke:#263238;stroke-width:0.65;stroke-miterlimit:10;" d="M84.346,169.684l2.168-2.627
						c0.41-0.497,1.142-0.571,1.635-0.164l9.566,7.894c0.493,0.406,0.559,1.139,0.149,1.636l-2.168,2.627
						c-0.41,0.497-1.142,0.571-1.634,0.164l-9.566-7.894C84.002,170.913,83.936,170.181,84.346,169.684z"/>
					<path style="fill:#FFFFFF;stroke:#263238;stroke-width:0.65;stroke-miterlimit:10;" d="M85.157,167.566l2.168-2.627
						c0.41-0.497,1.142-0.571,1.634-0.164l10.681,8.814c0.493,0.406,0.559,1.139,0.149,1.636l-2.168,2.627
						c-0.41,0.497-1.142,0.571-1.634,0.164l-10.681-8.814C84.813,168.795,84.746,168.063,85.157,167.566z"/>
				</g>
				<g>
					<path style="fill:#FFFFFF;stroke:#263238;stroke-width:0.65;stroke-miterlimit:10;" d="M78.907,176.275l2.168-2.627
						c0.41-0.497,1.142-0.571,1.634-0.164l9.566,7.894c0.493,0.406,0.559,1.139,0.149,1.636l-2.168,2.627
						c-0.41,0.497-1.142,0.571-1.634,0.164l-9.566-7.894C78.563,177.505,78.496,176.773,78.907,176.275z"/>
					<path style="fill:#FFFFFF;stroke:#263238;stroke-width:0.65;stroke-miterlimit:10;" d="M79.718,174.157l2.168-2.627
						c0.41-0.497,1.142-0.571,1.634-0.164l10.681,8.814c0.493,0.406,0.559,1.139,0.149,1.636l-2.168,2.627
						c-0.41,0.497-1.142,0.571-1.634,0.164l-10.681-8.814C79.374,175.387,79.307,174.654,79.718,174.157z"/>
				</g>
				<g>
					<path style="fill:#FFFFFF;stroke:#263238;stroke-width:0.65;stroke-miterlimit:10;" d="M73.468,182.867l2.168-2.627
						c0.41-0.497,1.142-0.571,1.634-0.164l9.566,7.894c0.493,0.406,0.559,1.139,0.149,1.636l-2.168,2.627
						c-0.41,0.497-1.142,0.571-1.635,0.164l-9.566-7.894C73.124,184.096,73.057,183.364,73.468,182.867z"/>
					<path style="fill:#FFFFFF;stroke:#263238;stroke-width:0.65;stroke-miterlimit:10;" d="M74.279,180.749l2.168-2.627
						c0.41-0.497,1.142-0.571,1.634-0.164l10.681,8.814c0.492,0.406,0.559,1.139,0.149,1.636l-2.168,2.627
						c-0.41,0.497-1.142,0.571-1.635,0.164l-10.681-8.814C73.935,181.978,73.868,181.246,74.279,180.749z"/>
				</g>
				<g>
					<path style="fill:#FFFFFF;stroke:#263238;stroke-width:0.65;stroke-miterlimit:10;" d="M68.029,189.458l2.168-2.627
						c0.41-0.497,1.142-0.571,1.634-0.164l9.566,7.894c0.493,0.406,0.559,1.139,0.149,1.636l-2.168,2.627
						c-0.41,0.497-1.142,0.571-1.635,0.164l-9.566-7.894C67.685,190.688,67.618,189.956,68.029,189.458z"/>
					<path style="fill:#FFFFFF;stroke:#263238;stroke-width:0.65;stroke-miterlimit:10;" d="M68.839,187.34l2.168-2.627
						c0.41-0.497,1.142-0.571,1.634-0.164l10.681,8.814c0.493,0.406,0.559,1.139,0.149,1.636l-2.168,2.627
						c-0.41,0.497-1.142,0.571-1.634,0.164l-10.681-8.814C68.496,188.57,68.429,187.837,68.839,187.34z"/>
				</g>
				<g>
					<path style="fill:#FFFFFF;stroke:#263238;stroke-width:0.65;stroke-miterlimit:10;" d="M63.591,201.697v-5.339
						c0-0.593,0.124-1.094,0.326-1.405c0.468-0.237,0.907-0.307,1.223-0.178l12.069,4.861c0.316,0.128,0.583,0.268,0.771,0.37
						c0.202,0.108,0.326,0.18,0.326,0.218v1.472c0,0.645-0.518,1.167-1.156,1.167H64.747
						C64.108,202.864,63.591,202.342,63.591,201.697z"/>
					<path style="fill:#FFFFFF;stroke:#263238;stroke-width:0.65;stroke-miterlimit:10;" d="M62.868,198.631v-4.055l1.671-2.025
						c0.815-0.987,1.886-1.473,2.394-1.084l11.221,8.16c0.507,0.389,0.908,0.716,0.908,0.716l-0.033,0.04v0.08
						c0,0.012-0.129,0.012-0.339,0.027c-0.052,0.009-0.11-0.006-0.171,0.025c-0.062,0.042-0.127,0.078-0.196,0.108
						c-0.138,0.059-0.29,0.092-0.45,0.092H64.024c-0.16,0-0.312-0.033-0.45-0.092c-0.069-0.03-0.135-0.066-0.196-0.108
						c-0.062-0.053-0.119-0.164-0.171-0.26C62.998,199.847,62.868,199.264,62.868,198.631z"/>
				</g>
				<g>
					<path style="fill:#FFFFFF;stroke:#263238;stroke-width:0.65;stroke-miterlimit:10;" d="M63.591,210.243v-3.406
						c0-0.645,0.518-1.167,1.156-1.167H77.15c0.638,0,1.156,0.522,1.156,1.167v3.406c0,0.645-0.518,1.167-1.156,1.167H64.747
						C64.108,211.41,63.591,210.887,63.591,210.243z"/>
					<path style="fill:#FFFFFF;stroke:#263238;stroke-width:0.65;stroke-miterlimit:10;" d="M62.868,208.093v-3.406
						c0-0.645,0.518-1.167,1.156-1.167h13.848c0.639,0,1.156,0.523,1.156,1.167v3.406c0,0.645-0.518,1.167-1.156,1.167H64.024
						C63.386,209.26,62.868,208.738,62.868,208.093z"/>
				</g>
				<g>
					<path style="fill:#FFFFFF;stroke:#263238;stroke-width:0.65;stroke-miterlimit:10;" d="M63.591,218.789v-3.406
						c0-0.645,0.518-1.167,1.156-1.167H77.15c0.638,0,1.156,0.522,1.156,1.167v3.406c0,0.645-0.518,1.167-1.156,1.167H64.747
						C64.108,219.956,63.591,219.433,63.591,218.789z"/>
					<path style="fill:#FFFFFF;stroke:#263238;stroke-width:0.65;stroke-miterlimit:10;" d="M62.868,216.639v-3.406
						c0-0.645,0.518-1.167,1.156-1.167h13.848c0.639,0,1.156,0.523,1.156,1.167v3.406c0,0.644-0.518,1.167-1.156,1.167H64.024
						C63.386,217.806,62.868,217.283,62.868,216.639z"/>
				</g>
				<g>
					<path style="fill:#FFFFFF;stroke:#263238;stroke-width:0.65;stroke-miterlimit:10;" d="M63.591,227.335v-3.406
						c0-0.645,0.518-1.167,1.156-1.167H77.15c0.638,0,1.156,0.523,1.156,1.167v3.406c0,0.645-0.518,1.167-1.156,1.167H64.747
						C64.108,228.502,63.591,227.979,63.591,227.335z"/>
					<path style="fill:#FFFFFF;stroke:#263238;stroke-width:0.65;stroke-miterlimit:10;" d="M62.868,225.185v-3.406
						c0-0.645,0.518-1.167,1.156-1.167h13.848c0.639,0,1.156,0.523,1.156,1.167v3.406c0,0.645-0.518,1.167-1.156,1.167H64.024
						C63.386,226.352,62.868,225.829,62.868,225.185z"/>
				</g>
				<g>
					<path style="fill:#FFFFFF;stroke:#263238;stroke-width:0.65;stroke-miterlimit:10;" d="M63.591,235.88v-3.406
						c0-0.645,0.518-1.167,1.156-1.167H77.15c0.638,0,1.156,0.523,1.156,1.167v3.406c0,0.645-0.518,1.167-1.156,1.167H64.747
						C64.108,237.048,63.591,236.525,63.591,235.88z"/>
					<path style="fill:#FFFFFF;stroke:#263238;stroke-width:0.65;stroke-miterlimit:10;" d="M62.868,233.731v-3.406
						c0-0.645,0.518-1.167,1.156-1.167h13.848c0.639,0,1.156,0.523,1.156,1.167v3.406c0,0.645-0.518,1.167-1.156,1.167H64.024
						C63.386,234.898,62.868,234.375,62.868,233.731z"/>
				</g>
				<g>
					<path style="fill:#FFFFFF;stroke:#263238;stroke-width:0.65;stroke-miterlimit:10;" d="M63.591,244.426v-3.406
						c0-0.645,0.518-1.167,1.156-1.167H77.15c0.638,0,1.156,0.523,1.156,1.167v3.406c0,0.645-0.518,1.167-1.156,1.167H64.747
						C64.108,245.593,63.591,245.071,63.591,244.426z"/>
					<path style="fill:#FFFFFF;stroke:#263238;stroke-width:0.65;stroke-miterlimit:10;" d="M62.868,242.277v-3.406
						c0-0.645,0.518-1.167,1.156-1.167h13.848c0.639,0,1.156,0.522,1.156,1.167v3.406c0,0.645-0.518,1.167-1.156,1.167H64.024
						C63.386,243.444,62.868,242.921,62.868,242.277z"/>
				</g>
				<g>
					<path style="fill:#FFFFFF;stroke:#263238;stroke-width:0.65;stroke-miterlimit:10;" d="M63.591,252.972v-3.406
						c0-0.645,0.518-1.167,1.156-1.167H77.15c0.638,0,1.156,0.523,1.156,1.167v3.406c0,0.645-0.518,1.167-1.156,1.167H64.747
						C64.108,254.139,63.591,253.617,63.591,252.972z"/>
					<path style="fill:#FFFFFF;stroke:#263238;stroke-width:0.65;stroke-miterlimit:10;" d="M62.868,250.822v-3.406
						c0-0.645,0.518-1.167,1.156-1.167h13.848c0.639,0,1.156,0.522,1.156,1.167v3.406c0,0.645-0.518,1.167-1.156,1.167H64.024
						C63.386,251.99,62.868,251.467,62.868,250.822z"/>
				</g>
				<g>
					<path style="fill:#FFFFFF;stroke:#263238;stroke-width:0.65;stroke-miterlimit:10;" d="M63.591,261.518v-3.406
						c0-0.645,0.518-1.167,1.156-1.167H77.15c0.638,0,1.156,0.522,1.156,1.167v3.406c0,0.645-0.518,1.167-1.156,1.167H64.747
						C64.108,262.685,63.591,262.163,63.591,261.518z"/>
					<path style="fill:#FFFFFF;stroke:#263238;stroke-width:0.65;stroke-miterlimit:10;" d="M62.868,259.368v-3.406
						c0-0.645,0.518-1.167,1.156-1.167h13.848c0.639,0,1.156,0.522,1.156,1.167v3.406c0,0.645-0.518,1.167-1.156,1.167H64.024
						C63.386,260.535,62.868,260.013,62.868,259.368z"/>
				</g>
				<g>
					<path style="fill:#FFFFFF;stroke:#263238;stroke-width:0.65;stroke-miterlimit:10;" d="M63.591,270.064v-3.406
						c0-0.645,0.518-1.167,1.156-1.167H77.15c0.638,0,1.156,0.523,1.156,1.167v3.406c0,0.645-0.518,1.167-1.156,1.167H64.747
						C64.108,271.231,63.591,270.708,63.591,270.064z"/>
					<path style="fill:#FFFFFF;stroke:#263238;stroke-width:0.65;stroke-miterlimit:10;" d="M62.868,267.914v-3.406
						c0-0.645,0.518-1.167,1.156-1.167h13.848c0.639,0,1.156,0.522,1.156,1.167v3.406c0,0.645-0.518,1.167-1.156,1.167H64.024
						C63.386,269.081,62.868,268.559,62.868,267.914z"/>
				</g>
				<g>
					<path style="fill:#FFFFFF;stroke:#263238;stroke-width:0.65;stroke-miterlimit:10;" d="M63.854,279.679
						c-0.28-1.612-0.26-3.581-0.264-4.475c0-0.645,0.518-1.167,1.156-1.167H77.15c0.638,0,1.156,0.523,1.156,1.167
						c0.002,0.531-0.009,1.264,0.023,1.438c0.013,0.296,0.014,0.594,0.081,0.879c0.026,0.163-0.084,0.334-0.277,0.49
						c-0.173,0.15-0.435,0.286-0.746,0.358l-12.092,2.758c-0.311,0.072-0.639-0.045-0.915-0.305
						C64.124,280.56,63.926,280.153,63.854,279.679z"/>
					<path style="fill:#FFFFFF;stroke:#263238;stroke-width:0.65;stroke-miterlimit:10;" d="M62.874,276.516l-0.006-3.461
						c0-0.645,0.518-1.167,1.156-1.167h13.848c0.639,0,1.156,0.522,1.156,1.167l0.005,3.35c0.03,0.296-0.486,0.587-1.121,0.649
						l-13.801,1.145C63.477,278.26,62.909,277.507,62.874,276.516z"/>
				</g>
				<g>
					<path style="fill:#FFFFFF;stroke:#263238;stroke-width:0.65;stroke-miterlimit:10;" d="M69.06,291.065
						c-0.565-0.622-1.038-1.323-1.543-1.995c-0.456-0.706-0.904-1.423-1.303-2.164c-0.431-0.866-0.281-1.777,0.308-2.023
						l11.374-4.945c0.589-0.246,1.192-0.216,1.321,0.079c0.142,0.255,0.305,0.5,0.451,0.753c0.196,0.22,0.334,0.485,0.544,0.694
						c0.226,0.234,0.029,0.815-0.412,1.27l-8.755,8.785C70.598,291.981,69.703,291.783,69.06,291.065z"/>
					<path style="fill:#FFFFFF;stroke:#263238;stroke-width:0.65;stroke-miterlimit:10;" d="M66.551,288.902
						c-0.455-0.741-0.918-1.477-1.278-2.272l-0.559-1.18l-0.461-1.223c-0.362-0.932-0.042-1.852,0.574-2.012l13.355-3.664
						c0.62-0.161,1.157-0.056,1.279,0.21l0.128,0.374c0.064,0.116,0.124,0.234,0.18,0.354c0.091,0.25,0.258,0.462,0.387,0.694
						c0.138,0.26-0.09,0.743-0.607,1.143l-11.054,8.342C68.006,290.05,67.068,289.754,66.551,288.902z"/>
				</g>
				<g>
					<path style="fill:#FFFFFF;stroke:#263238;stroke-width:0.65;stroke-miterlimit:10;" d="M79.525,297.926
						c-0.797-0.273-1.598-0.551-2.372-0.883c-0.756-0.371-1.541-0.695-2.254-1.144c-0.827-0.498-1.195-1.332-0.818-1.868
						l7.003-10.237c0.358-0.507,0.897-0.819,1.167-0.642c0.238,0.176,0.528,0.249,0.778,0.4c0.269,0.112,0.547,0.197,0.817,0.307
						c0.315,0.066,0.458,0.648,0.327,1.273l-2.716,12.102C81.328,297.859,80.458,298.181,79.525,297.926z"/>
					<path style="fill:#FFFFFF;stroke:#263238;stroke-width:0.65;stroke-miterlimit:10;" d="M76.244,297.413l-1.173-0.575
						l-1.12-0.667c-0.755-0.435-1.446-0.961-2.138-1.486c-0.8-0.592-1.004-1.556-0.578-2.008l9.345-10.219
						c0.448-0.478,0.948-0.656,1.197-0.496c0.218,0.154,0.417,0.337,0.657,0.454l0.337,0.214c0.123,0.051,0.243,0.106,0.362,0.164
						c0.253,0.15,0.309,0.688,0.088,1.293l-4.92,12.945C78.086,297.626,77.136,297.864,76.244,297.413z"/>
				</g>
				<g>
					<path style="fill:#FFFFFF;stroke:#263238;stroke-width:0.65;stroke-miterlimit:10;" d="M90.167,298.921h-3.406
						c-0.541,0.014-1.46-0.553-1.394-1.189l0.455-12.395c0.067-0.643,0.191-1.122,0.939-1.132h3.406
						c0.645,0,1.167,0.518,1.167,1.156v12.403C91.334,298.403,90.811,298.921,90.167,298.921z"/>
					<path style="fill:#FFFFFF;stroke:#263238;stroke-width:0.65;stroke-miterlimit:10;" d="M88.017,299.644h-1.703l-0.567-0.015
						l-0.649-0.029l-1.296-0.076c-0.987-0.131-1.687-0.773-1.565-1.399l2.444-13.631c0.122-0.627,0.455-1.109,0.743-1.049
						l0.404,0.01l0.202,0.014c0.069,0.006,0.11,0.015,0.284,0.012h1.703c0.645,0,1.167,0.518,1.167,1.156v13.848
						C89.184,299.126,88.661,299.644,88.017,299.644z"/>
				</g>
				<g>
					<path style="fill:#FFFFFF;stroke:#263238;stroke-width:0.65;stroke-miterlimit:10;" d="M98.713,298.921h-3.406
						c-0.645,0-1.167-0.518-1.167-1.156v-12.403c0-0.638,0.522-1.156,1.167-1.156h3.406c0.645,0,1.167,0.518,1.167,1.156v12.403
						C99.88,298.403,99.357,298.921,98.713,298.921z"/>
					<path style="fill:#FFFFFF;stroke:#263238;stroke-width:0.65;stroke-miterlimit:10;" d="M96.563,299.644h-3.406
						c-0.645,0-1.167-0.518-1.167-1.156v-13.848c0-0.639,0.522-1.156,1.167-1.156h3.406c0.645,0,1.167,0.518,1.167,1.156v13.848
						C97.73,299.126,97.207,299.644,96.563,299.644z"/>
				</g>
				<g>
					<path style="fill:#FFFFFF;stroke:#263238;stroke-width:0.65;stroke-miterlimit:10;" d="M107.258,298.921h-3.406
						c-0.645,0-1.167-0.518-1.167-1.156v-12.403c0-0.638,0.522-1.156,1.167-1.156h3.406c0.645,0,1.167,0.518,1.167,1.156v12.403
						C108.426,298.403,107.903,298.921,107.258,298.921z"/>
					<path style="fill:#FFFFFF;stroke:#263238;stroke-width:0.65;stroke-miterlimit:10;" d="M105.109,299.644h-3.406
						c-0.645,0-1.167-0.518-1.167-1.156v-13.848c0-0.639,0.523-1.156,1.167-1.156h3.406c0.645,0,1.167,0.518,1.167,1.156v13.848
						C106.276,299.126,105.753,299.644,105.109,299.644z"/>
				</g>
				<g>
					<path style="fill:#FFFFFF;stroke:#263238;stroke-width:0.65;stroke-miterlimit:10;" d="M115.804,298.921h-3.406
						c-0.645,0-1.167-0.518-1.167-1.156v-12.403c0-0.638,0.522-1.156,1.167-1.156h3.406c0.645,0,1.167,0.518,1.167,1.156v12.403
						C116.971,298.403,116.449,298.921,115.804,298.921z"/>
					<path style="fill:#FFFFFF;stroke:#263238;stroke-width:0.65;stroke-miterlimit:10;" d="M113.655,299.644h-3.406
						c-0.645,0-1.167-0.518-1.167-1.156v-13.848c0-0.639,0.522-1.156,1.167-1.156h3.406c0.645,0,1.167,0.518,1.167,1.156v13.848
						C114.822,299.126,114.299,299.644,113.655,299.644z"/>
				</g>
				<g>
					<path style="fill:#FFFFFF;stroke:#263238;stroke-width:0.65;stroke-miterlimit:10;" d="M124.35,298.921h-3.406
						c-0.645,0-1.167-0.518-1.167-1.156v-12.403c0-0.638,0.522-1.156,1.167-1.156h3.406c0.645,0,1.167,0.518,1.167,1.156v12.403
						C125.517,298.403,124.995,298.921,124.35,298.921z"/>
					<path style="fill:#FFFFFF;stroke:#263238;stroke-width:0.65;stroke-miterlimit:10;" d="M122.2,299.644h-3.406
						c-0.645,0-1.167-0.518-1.167-1.156v-13.848c0-0.639,0.522-1.156,1.167-1.156h3.406c0.645,0,1.167,0.518,1.167,1.156v13.848
						C123.368,299.126,122.845,299.644,122.2,299.644z"/>
				</g>
				<g>
					<path style="fill:#FFFFFF;stroke:#263238;stroke-width:0.65;stroke-miterlimit:10;" d="M132.896,298.921h-3.406
						c-0.645,0-1.167-0.518-1.167-1.156v-12.403c0-0.638,0.522-1.156,1.167-1.156h3.406c0.645,0,1.167,0.518,1.167,1.156v12.403
						C134.063,298.403,133.541,298.921,132.896,298.921z"/>
					<path style="fill:#FFFFFF;stroke:#263238;stroke-width:0.65;stroke-miterlimit:10;" d="M130.746,299.644h-3.406
						c-0.645,0-1.167-0.518-1.167-1.156v-13.848c0-0.639,0.522-1.156,1.167-1.156h3.406c0.644,0,1.167,0.518,1.167,1.156v13.848
						C131.913,299.126,131.391,299.644,130.746,299.644z"/>
				</g>
				<g>
					<path style="fill:#FFFFFF;stroke:#263238;stroke-width:0.65;stroke-miterlimit:10;" d="M141.442,298.921h-3.406
						c-0.645,0-1.167-0.518-1.167-1.156v-12.403c0-0.638,0.523-1.156,1.167-1.156h3.406c0.645,0,1.167,0.518,1.167,1.156v12.403
						C142.609,298.403,142.087,298.921,141.442,298.921z"/>
					<path style="fill:#FFFFFF;stroke:#263238;stroke-width:0.65;stroke-miterlimit:10;" d="M139.292,299.644h-3.406
						c-0.645,0-1.167-0.518-1.167-1.156v-13.848c0-0.639,0.523-1.156,1.167-1.156h3.406c0.645,0,1.167,0.518,1.167,1.156v13.848
						C140.459,299.126,139.937,299.644,139.292,299.644z"/>
				</g>
				<g>
					<path style="fill:#FFFFFF;stroke:#263238;stroke-width:0.65;stroke-miterlimit:10;" d="M149.988,298.921h-3.406
						c-0.645,0-1.167-0.518-1.167-1.156v-12.403c0-0.638,0.523-1.156,1.167-1.156h3.406c0.645,0,1.167,0.518,1.167,1.156v12.403
						C151.155,298.403,150.632,298.921,149.988,298.921z"/>
					<path style="fill:#FFFFFF;stroke:#263238;stroke-width:0.65;stroke-miterlimit:10;" d="M147.838,299.644h-3.406
						c-0.645,0-1.167-0.518-1.167-1.156v-13.848c0-0.639,0.523-1.156,1.167-1.156h3.406c0.645,0,1.167,0.518,1.167,1.156v13.848
						C149.005,299.126,148.482,299.644,147.838,299.644z"/>
				</g>
				<g>
					<path style="fill:#FFFFFF;stroke:#263238;stroke-width:0.65;stroke-miterlimit:10;" d="M158.534,298.921h-3.406
						c-0.645,0-1.167-0.518-1.167-1.156v-12.403c0-0.638,0.523-1.156,1.167-1.156h3.406c0.645,0,1.167,0.518,1.167,1.156v12.403
						C159.701,298.403,159.178,298.921,158.534,298.921z"/>
					<path style="fill:#FFFFFF;stroke:#263238;stroke-width:0.65;stroke-miterlimit:10;" d="M156.384,299.644h-3.406
						c-0.645,0-1.167-0.518-1.167-1.156v-13.848c0-0.639,0.522-1.156,1.167-1.156h3.406c0.645,0,1.167,0.518,1.167,1.156v13.848
						C157.551,299.126,157.028,299.644,156.384,299.644z"/>
				</g>
				<g>
					<path style="fill:#FFFFFF;stroke:#263238;stroke-width:0.65;stroke-miterlimit:10;" d="M167.079,298.921h-3.406
						c-0.645,0-1.167-0.518-1.167-1.156v-12.403c0-0.638,0.523-1.156,1.167-1.156h3.406c0.645,0,1.167,0.518,1.167,1.156v12.403
						C168.247,298.403,167.724,298.921,167.079,298.921z"/>
					<path style="fill:#FFFFFF;stroke:#263238;stroke-width:0.65;stroke-miterlimit:10;" d="M164.93,299.644h-3.406
						c-0.645,0-1.167-0.518-1.167-1.156v-13.848c0-0.639,0.522-1.156,1.167-1.156h3.406c0.645,0,1.167,0.518,1.167,1.156v13.848
						C166.097,299.126,165.574,299.644,164.93,299.644z"/>
				</g>
				<g>
					<path style="fill:#FFFFFF;stroke:#263238;stroke-width:0.65;stroke-miterlimit:10;" d="M175.625,298.921h-3.406
						c-0.645,0-1.167-0.518-1.167-1.156v-12.403c0-0.638,0.523-1.156,1.167-1.156h3.406c0.645,0,1.167,0.518,1.167,1.156v12.403
						C176.792,298.403,176.27,298.921,175.625,298.921z"/>
					<path style="fill:#FFFFFF;stroke:#263238;stroke-width:0.65;stroke-miterlimit:10;" d="M173.476,299.644h-3.406
						c-0.645,0-1.167-0.518-1.167-1.156v-13.848c0-0.639,0.523-1.156,1.167-1.156h3.406c0.645,0,1.167,0.518,1.167,1.156v13.848
						C174.643,299.126,174.12,299.644,173.476,299.644z"/>
				</g>
				<g>
					<path style="fill:#FFFFFF;stroke:#263238;stroke-width:0.65;stroke-miterlimit:10;" d="M184.171,298.921h-3.406
						c-0.645,0-1.167-0.518-1.167-1.156v-12.403c0-0.638,0.523-1.156,1.167-1.156h3.406c0.645,0,1.167,0.518,1.167,1.156v12.403
						C185.338,298.403,184.816,298.921,184.171,298.921z"/>
					<path style="fill:#FFFFFF;stroke:#263238;stroke-width:0.65;stroke-miterlimit:10;" d="M182.021,299.644h-3.406
						c-0.645,0-1.167-0.518-1.167-1.156v-13.848c0-0.639,0.523-1.156,1.167-1.156h3.406c0.645,0,1.167,0.518,1.167,1.156v13.848
						C183.188,299.126,182.666,299.644,182.021,299.644z"/>
				</g>
				<g>
					<path style="fill:#FFFFFF;stroke:#263238;stroke-width:0.65;stroke-miterlimit:10;" d="M192.717,298.921h-3.406
						c-0.645,0-1.167-0.518-1.167-1.156v-12.403c0-0.638,0.523-1.156,1.167-1.156h3.406c0.645,0,1.167,0.518,1.167,1.156v12.403
						C193.884,298.403,193.362,298.921,192.717,298.921z"/>
					<path style="fill:#FFFFFF;stroke:#263238;stroke-width:0.65;stroke-miterlimit:10;" d="M190.567,299.644h-3.406
						c-0.645,0-1.167-0.518-1.167-1.156v-13.848c0-0.639,0.523-1.156,1.167-1.156h3.406c0.645,0,1.167,0.518,1.167,1.156v13.848
						C191.734,299.126,191.212,299.644,190.567,299.644z"/>
				</g>
				<g>
					<path style="fill:#FFFFFF;stroke:#263238;stroke-width:0.65;stroke-miterlimit:10;" d="M201.263,298.921h-3.406
						c-0.645,0-1.167-0.518-1.167-1.156v-12.403c0-0.638,0.523-1.156,1.167-1.156h3.406c0.645,0,1.167,0.518,1.167,1.156v12.403
						C202.43,298.403,201.908,298.921,201.263,298.921z"/>
					<path style="fill:#FFFFFF;stroke:#263238;stroke-width:0.65;stroke-miterlimit:10;" d="M199.113,299.644h-3.406
						c-0.645,0-1.167-0.518-1.167-1.156v-13.848c0-0.639,0.523-1.156,1.167-1.156h3.406c0.645,0,1.167,0.518,1.167,1.156v13.848
						C200.28,299.126,199.758,299.644,199.113,299.644z"/>
				</g>
				<g>
					<path style="fill:#FFFFFF;stroke:#263238;stroke-width:0.65;stroke-miterlimit:10;" d="M209.809,298.921h-3.406
						c-0.645,0-1.167-0.518-1.167-1.156v-12.403c0-0.638,0.523-1.156,1.167-1.156h3.406c0.645,0,1.167,0.518,1.167,1.156v12.403
						C210.976,298.403,210.453,298.921,209.809,298.921z"/>
					<path style="fill:#FFFFFF;stroke:#263238;stroke-width:0.65;stroke-miterlimit:10;" d="M207.659,299.644h-3.406
						c-0.645,0-1.167-0.518-1.167-1.156v-13.848c0-0.639,0.523-1.156,1.167-1.156h3.406c0.645,0,1.167,0.518,1.167,1.156v13.848
						C208.826,299.126,208.303,299.644,207.659,299.644z"/>
				</g>
				<g>
					<path style="fill:#FFFFFF;stroke:#263238;stroke-width:0.65;stroke-miterlimit:10;" d="M218.355,298.921h-3.406
						c-0.645,0-1.167-0.518-1.167-1.156v-12.403c0-0.638,0.523-1.156,1.167-1.156h3.406c0.645,0,1.167,0.518,1.167,1.156v12.403
						C219.522,298.403,218.999,298.921,218.355,298.921z"/>
					<path style="fill:#FFFFFF;stroke:#263238;stroke-width:0.65;stroke-miterlimit:10;" d="M216.205,299.644h-3.406
						c-0.645,0-1.167-0.518-1.167-1.156v-13.848c0-0.639,0.522-1.156,1.167-1.156h3.406c0.645,0,1.167,0.518,1.167,1.156v13.848
						C217.372,299.126,216.849,299.644,216.205,299.644z"/>
				</g>
				<g>
					<path style="fill:#FFFFFF;stroke:#263238;stroke-width:0.65;stroke-miterlimit:10;" d="M226.9,298.921h-3.406
						c-0.645,0-1.167-0.518-1.167-1.156v-12.403c0-0.638,0.523-1.156,1.167-1.156h3.406c0.645,0,1.167,0.518,1.167,1.156v12.403
						C228.068,298.403,227.545,298.921,226.9,298.921z"/>
					<path style="fill:#FFFFFF;stroke:#263238;stroke-width:0.65;stroke-miterlimit:10;" d="M224.751,299.644h-3.406
						c-0.645,0-1.167-0.518-1.167-1.156v-13.848c0-0.639,0.522-1.156,1.167-1.156h3.406c0.645,0,1.167,0.518,1.167,1.156v13.848
						C225.918,299.126,225.395,299.644,224.751,299.644z"/>
				</g>
				<g>
					<path style="fill:#FFFFFF;stroke:#263238;stroke-width:0.65;stroke-miterlimit:10;" d="M235.446,298.921h-3.406
						c-0.645,0-1.167-0.518-1.167-1.156v-12.403c0-0.638,0.523-1.156,1.167-1.156h3.406c0.645,0,1.167,0.518,1.167,1.156v12.403
						C236.613,298.403,236.091,298.921,235.446,298.921z"/>
					<path style="fill:#FFFFFF;stroke:#263238;stroke-width:0.65;stroke-miterlimit:10;" d="M233.297,299.644h-3.406
						c-0.644,0-1.167-0.518-1.167-1.156v-13.848c0-0.639,0.523-1.156,1.167-1.156h3.406c0.645,0,1.167,0.518,1.167,1.156v13.848
						C234.464,299.126,233.941,299.644,233.297,299.644z"/>
				</g>
				<g>
					<path style="fill:#FFFFFF;stroke:#263238;stroke-width:0.65;stroke-miterlimit:10;" d="M243.992,298.921h-3.406
						c-0.645,0-1.167-0.518-1.167-1.156v-12.403c0-0.638,0.522-1.156,1.167-1.156h3.406c0.645,0,1.167,0.518,1.167,1.156v12.403
						C245.159,298.403,244.637,298.921,243.992,298.921z"/>
					<path style="fill:#FFFFFF;stroke:#263238;stroke-width:0.65;stroke-miterlimit:10;" d="M241.842,299.644h-3.406
						c-0.645,0-1.167-0.518-1.167-1.156v-13.848c0-0.639,0.522-1.156,1.167-1.156h3.406c0.645,0,1.167,0.518,1.167,1.156v13.848
						C243.01,299.126,242.487,299.644,241.842,299.644z"/>
				</g>
				<g>
					<path style="fill:#FFFFFF;stroke:#263238;stroke-width:0.65;stroke-miterlimit:10;" d="M252.538,298.921h-3.406
						c-0.645,0-1.167-0.518-1.167-1.156v-12.403c0-0.638,0.522-1.156,1.167-1.156h3.406c0.645,0,1.167,0.518,1.167,1.156v12.403
						C253.705,298.403,253.183,298.921,252.538,298.921z"/>
					<path style="fill:#FFFFFF;stroke:#263238;stroke-width:0.65;stroke-miterlimit:10;" d="M250.388,299.644h-3.406
						c-0.645,0-1.167-0.518-1.167-1.156v-13.848c0-0.639,0.522-1.156,1.167-1.156h3.406c0.645,0,1.167,0.518,1.167,1.156v13.848
						C251.555,299.126,251.033,299.644,250.388,299.644z"/>
				</g>
				<g>
					<path style="fill:#FFFFFF;stroke:#263238;stroke-width:0.65;stroke-miterlimit:10;" d="M261.084,298.921h-3.406
						c-0.645,0-1.167-0.518-1.167-1.156v-12.403c0-0.638,0.522-1.156,1.167-1.156h3.406c0.644,0,1.167,0.518,1.167,1.156v12.403
						C262.251,298.403,261.728,298.921,261.084,298.921z"/>
					<path style="fill:#FFFFFF;stroke:#263238;stroke-width:0.65;stroke-miterlimit:10;" d="M258.934,299.644h-3.406
						c-0.645,0-1.167-0.518-1.167-1.156v-13.848c0-0.639,0.523-1.156,1.167-1.156h3.406c0.645,0,1.167,0.518,1.167,1.156v13.848
						C260.101,299.126,259.579,299.644,258.934,299.644z"/>
				</g>
				<g>
					<path style="fill:#FFFFFF;stroke:#263238;stroke-width:0.65;stroke-miterlimit:10;" d="M269.63,298.921h-3.406
						c-0.645,0-1.167-0.518-1.167-1.156v-12.403c0-0.638,0.522-1.156,1.167-1.156h3.406c0.645,0,1.167,0.518,1.167,1.156v12.403
						C270.797,298.403,270.274,298.921,269.63,298.921z"/>
					<path style="fill:#FFFFFF;stroke:#263238;stroke-width:0.65;stroke-miterlimit:10;" d="M267.48,299.644h-3.406
						c-0.645,0-1.167-0.518-1.167-1.156v-13.848c0-0.639,0.522-1.156,1.167-1.156h3.406c0.645,0,1.167,0.518,1.167,1.156v13.848
						C268.647,299.126,268.125,299.644,267.48,299.644z"/>
				</g>
			</g>
			<g>
				<path style="fill:#263238;stroke:#263238;stroke-miterlimit:10;" d="M147.332,154.834l-11.589,11.589
					c-1.702,1.702-1.702,4.461,0,6.162l4.019,4.019l17.751-17.751l-4.019-4.019C151.793,153.132,149.034,153.132,147.332,154.834z"
					/>
				<g>
					<polygon style="fill:#92E3A9;stroke:#263238;stroke-miterlimit:10;" points="177.48,186.407 173.547,190.339 151.89,168.3 
						161.995,158.195 					"/>
					<polygon style="fill:#92E3A9;stroke:#263238;stroke-miterlimit:10;" points="168.085,195.801 172.018,191.869 149.979,170.212 
						139.874,180.316 					"/>
					
						<rect x="146.554" y="151.026" transform="matrix(0.7071 0.7071 -0.7071 0.7071 162.9697 -56.3225)" style="fill:#FFFFFF;stroke:#263238;stroke-miterlimit:10;" width="5.838" height="35.075"/>
				</g>
			</g>
		</g>
	</g>
</g>
</svg>
